<svg xmlns="http://www.w3.org/2000/svg" viewBox="0 0 500 500"><g id="background-simple--inject-10"><path d="M68.92,200.29S53.31,269.14,98.44,329.52,221.69,413.75,284.5,434.76s121.36-2.39,143-55.17-23-81.59-33.26-150.79-2.56-89.05-48.65-142-140-52.3-203.09,1.33S68.92,200.29,68.92,200.29Z" style="fill:#68BDBE"></path><path d="M68.92,200.29S53.31,269.14,98.44,329.52,221.69,413.75,284.5,434.76s121.36-2.39,143-55.17-23-81.59-33.26-150.79-2.56-89.05-48.65-142-140-52.3-203.09,1.33S68.92,200.29,68.92,200.29Z" style="fill:#fff;opacity:0.7000000000000001"></path></g><g id="Bricks--inject-10"><rect x="87.52" y="366.98" width="20.77" height="9.64" style="fill:none;stroke:#263238;stroke-linecap:round;stroke-linejoin:round"></rect><rect x="111.25" y="366.98" width="20.77" height="9.64" style="fill:none;stroke:#263238;stroke-linecap:round;stroke-linejoin:round"></rect><rect x="100.13" y="379.05" width="20.77" height="9.64" style="fill:none;stroke:#263238;stroke-linecap:round;stroke-linejoin:round"></rect><rect x="222.34" y="212.7" width="20.77" height="9.64" style="fill:none;stroke:#263238;stroke-linecap:round;stroke-linejoin:round"></rect><rect x="246.08" y="212.7" width="20.77" height="9.64" style="fill:none;stroke:#263238;stroke-linecap:round;stroke-linejoin:round"></rect><rect x="234.95" y="224.77" width="20.77" height="9.64" style="fill:none;stroke:#263238;stroke-linecap:round;stroke-linejoin:round"></rect><rect x="280.28" y="78.1" width="20.77" height="9.64" style="fill:none;stroke:#263238;stroke-linecap:round;stroke-linejoin:round"></rect><rect x="338.43" y="376.92" width="20.77" height="9.64" style="fill:none;stroke:#263238;stroke-linecap:round;stroke-linejoin:round"></rect><rect x="340.29" y="107.6" width="20.77" height="9.64" style="fill:none;stroke:#263238;stroke-linecap:round;stroke-linejoin:round"></rect><rect x="364.02" y="107.6" width="20.77" height="9.64" style="fill:none;stroke:#263238;stroke-linecap:round;stroke-linejoin:round"></rect><rect x="352.9" y="119.67" width="20.77" height="9.64" style="fill:none;stroke:#263238;stroke-linecap:round;stroke-linejoin:round"></rect><rect x="383.41" y="366.98" width="20.77" height="9.64" style="fill:none;stroke:#263238;stroke-linecap:round;stroke-linejoin:round"></rect><rect x="396.02" y="379.05" width="20.77" height="9.64" style="fill:none;stroke:#263238;stroke-linecap:round;stroke-linejoin:round"></rect><rect x="143.62" y="107.6" width="20.77" height="9.64" style="fill:none;stroke:#263238;stroke-linecap:round;stroke-linejoin:round"></rect><rect x="167.36" y="107.6" width="20.77" height="9.64" style="fill:none;stroke:#263238;stroke-linecap:round;stroke-linejoin:round"></rect><rect x="156.23" y="119.67" width="20.77" height="9.64" style="fill:none;stroke:#263238;stroke-linecap:round;stroke-linejoin:round"></rect></g><g id="balcony-2--inject-10"><rect x="393.95" y="143.26" width="46.63" height="180.15" style="fill:none;stroke:#263238;stroke-linecap:round;stroke-linejoin:round"></rect><rect x="397.16" y="148.85" width="40.2" height="169.37" style="fill:none;stroke:#263238;stroke-linecap:round;stroke-linejoin:round"></rect><line x1="401.95" y1="225.25" x2="401.95" y2="234.47" style="fill:none;stroke:#263238;stroke-linecap:round;stroke-linejoin:round"></line><line x1="401.95" y1="148.94" x2="401.95" y2="219.25" style="fill:none;stroke:#263238;stroke-linecap:round;stroke-linejoin:round"></line><line x1="407.95" y1="168.58" x2="407.95" y2="278.25" style="fill:none;stroke:#263238;stroke-linecap:round;stroke-linejoin:round"></line><line x1="407.95" y1="148.94" x2="407.95" y2="162.58" style="fill:none;stroke:#263238;stroke-linecap:round;stroke-linejoin:round"></line><line x1="413.95" y1="238.92" x2="413.95" y2="241.92" style="fill:none;stroke:#263238;stroke-linecap:round;stroke-linejoin:round"></line><line x1="413.95" y1="148.94" x2="413.95" y2="232.92" style="fill:none;stroke:#263238;stroke-linecap:round;stroke-linejoin:round"></line><line x1="419.95" y1="148.94" x2="419.95" y2="234.47" style="fill:none;stroke:#263238;stroke-linecap:round;stroke-linejoin:round"></line><line x1="425.95" y1="148.94" x2="425.95" y2="234.47" style="fill:none;stroke:#263238;stroke-linecap:round;stroke-linejoin:round"></line><line x1="431.95" y1="182.92" x2="431.95" y2="249.92" style="fill:none;stroke:#263238;stroke-linecap:round;stroke-linejoin:round"></line><line x1="431.95" y1="148.94" x2="431.95" y2="176.58" style="fill:none;stroke:#263238;stroke-linecap:round;stroke-linejoin:round"></line><rect x="304.09" y="143.26" width="85.87" height="180" style="fill:none;stroke:#263238;stroke-linecap:round;stroke-linejoin:round"></rect><rect x="349.25" y="176.97" width="34.35" height="27.35" style="fill:none;stroke:#263238;stroke-linecap:round;stroke-linejoin:round"></rect><rect x="349.25" y="208.14" width="34.35" height="27.35" style="fill:none;stroke:#263238;stroke-linecap:round;stroke-linejoin:round"></rect><rect x="349.25" y="270.47" width="34.35" height="27.35" style="fill:none;stroke:#263238;stroke-linecap:round;stroke-linejoin:round"></rect><rect x="349.25" y="239.3" width="34.35" height="27.35" style="fill:none;stroke:#263238;stroke-linecap:round;stroke-linejoin:round"></rect><rect x="349.25" y="148.98" width="34.35" height="24.17" style="fill:none;stroke:#263238;stroke-linecap:round;stroke-linejoin:round"></rect><rect x="310.45" y="148.98" width="34.35" height="24.17" style="fill:none;stroke:#263238;stroke-linecap:round;stroke-linejoin:round"></rect><rect x="310.45" y="176.97" width="34.35" height="27.35" style="fill:none;stroke:#263238;stroke-linecap:round;stroke-linejoin:round"></rect><rect x="349.25" y="301.64" width="34.35" height="21.63" style="fill:none;stroke:#263238;stroke-linecap:round;stroke-linejoin:round"></rect><rect x="310.45" y="301.64" width="34.35" height="21.63" style="fill:none;stroke:#263238;stroke-linecap:round;stroke-linejoin:round"></rect><rect x="310.45" y="208.14" width="34.35" height="27.35" style="fill:none;stroke:#263238;stroke-linecap:round;stroke-linejoin:round"></rect><rect x="310.45" y="270.47" width="34.35" height="27.35" style="fill:none;stroke:#263238;stroke-linecap:round;stroke-linejoin:round"></rect><rect x="310.45" y="239.3" width="34.35" height="27.35" style="fill:none;stroke:#263238;stroke-linecap:round;stroke-linejoin:round"></rect><path d="M416.45,293.6a6.86,6.86,0,0,0-3.56-4,10.87,10.87,0,0,0-5.88-.21c-3.57.61-6.68,2-10.05,3.24,0,0,1.44-.53,7.35,2.35a15.8,15.8,0,0,0,7.17,1.83C413.48,296.75,416.55,296.18,416.45,293.6Z" style="fill:#68BDBE"></path><path d="M416.77,284.91a6.83,6.83,0,0,0-2.25-4.88,11,11,0,0,0-5.57-1.91c-3.59-.43-7,0-10.56.21,0,0,1.54-.09,6.37,4.38a16,16,0,0,0,6.33,3.82C413,287.06,416.12,287.4,416.77,284.91Z" style="fill:#68BDBE"></path><path d="M422.89,296.4a6.88,6.88,0,0,1-2.42-4.8,10.86,10.86,0,0,1,2-5.54c1.89-3.09,4.35-5.45,6.72-8.15,0,0-1,1.15-.52,7.71a15.82,15.82,0,0,1-.95,7.33C426.91,294.8,425.25,297.44,422.89,296.4Z" style="fill:#68BDBE"></path><path d="M431.44,301.15a6.86,6.86,0,0,1,1.67-5.1,11,11,0,0,1,5.32-2.54c3.51-.84,6.93-.78,10.51-1,0,0-1.54.08-5.82,5.08a16,16,0,0,1-5.84,4.53C435.42,302.86,432.38,303.56,431.44,301.15Z" style="fill:#68BDBE"></path><path d="M430.88,290.19a6.84,6.84,0,0,1-4.54-2.87,10.94,10.94,0,0,1-1.16-5.77c0-3.62.94-6.92,1.59-10.45,0,0-.3,1.51,3.5,6.89a15.86,15.86,0,0,1,3,6.77C433.51,286.75,433.44,289.87,430.88,290.19Z" style="fill:#68BDBE"></path><path d="M439.71,284.68a6.86,6.86,0,0,0,5,1.85,11,11,0,0,0,5.28-2.61c2.84-2.24,4.91-5,7.3-7.63,0,0-1,1.15-7.59,1.43a15.79,15.79,0,0,0-7.17,1.79C440.83,280.5,438.4,282.45,439.71,284.68Z" style="fill:#68BDBE"></path><path d="M437.15,282.53a6.87,6.87,0,0,0,5.09-1.72,11,11,0,0,0,2.48-5.34c.81-3.52.71-6.94.91-10.52,0,0-.07,1.53-5,5.87a15.74,15.74,0,0,0-4.47,5.89C435.4,278.57,434.74,281.62,437.15,282.53Z" style="fill:#68BDBE"></path><polyline points="426.16 312.51 420.84 299.42 414.71 284.29" style="fill:none;stroke:#263238;stroke-linecap:round;stroke-linejoin:round"></polyline><polyline points="427.38 310.26 432.7 292.06 438.42 280.82" style="fill:none;stroke:#263238;stroke-linecap:round;stroke-linejoin:round"></polyline><line x1="429.43" y1="303.1" x2="434.74" y2="300.04" style="fill:none;stroke:#263238;stroke-linecap:round;stroke-linejoin:round"></line><line x1="432.7" y1="292.06" x2="430.04" y2="286.13" style="fill:none;stroke:#263238;stroke-linecap:round;stroke-linejoin:round"></line><line x1="436.02" y1="286.16" x2="442.51" y2="283.27" style="fill:none;stroke:#263238;stroke-linecap:round;stroke-linejoin:round"></line><line x1="421.86" y1="301.88" x2="424.11" y2="292.88" style="fill:none;stroke:#263238;stroke-linecap:round;stroke-linejoin:round"></line><line x1="418.88" y1="295.04" x2="413.68" y2="292.27" style="fill:none;stroke:#263238;stroke-linecap:round;stroke-linejoin:round"></line><polygon points="431.46 319.05 421.87 319.05 419.82 308.21 433.52 308.21 431.46 319.05" style="fill:#263238;stroke:#263238;stroke-linecap:round;stroke-linejoin:round"></polygon><path d="M403.17,226.08s-7.82,3-9.83,3.44-5.45-7.65-7.94-13-4.27-3.73-5.47-3.57,2.86,12.64,3.45,17.14,1.78,10,5.81,8.77,14.93-11,15.88-12.68S403.17,226.08,403.17,226.08Z" style="fill:#fff;stroke:#263238;stroke-linecap:round;stroke-linejoin:round"></path><path d="M353.39,217a6.09,6.09,0,0,0-3.55,1.3c-1.54,1.3-13.4,24.77-13.16,25.72s1.19,1.07,4.27-.48,13.39-15.05,14.1-17.77S354.93,217.55,353.39,217Z" style="fill:#fff;stroke:#263238;stroke-linecap:round;stroke-linejoin:round"></path><path d="M360.21,317a19.73,19.73,0,0,0,1.5,5.55c1,1.86,3.24,1.62,3.36-.11s-2.32-5.79-2.32-5.79A2,2,0,0,0,360.21,317Z" style="fill:#fff;stroke:#263238;stroke-linecap:round;stroke-linejoin:round"></path><path d="M372.93,317.11s-1.62,2.31-.92,3.12,2,.23,3,1a6.29,6.29,0,0,0,4.86,1.05c1.62-.47.23-1.16-1.16-2.32a15.7,15.7,0,0,1-2.89-3C375.48,316.41,373.4,315.83,372.93,317.11Z" style="fill:#fff;stroke:#263238;stroke-linecap:round;stroke-linejoin:round"></path><path d="M356.38,256.85s3.13,17.95,3.83,27.67-.58,31.5,0,32.43a1.77,1.77,0,0,0,2.89.11c1-1,6.89-24.6,7.36-31.78s-1.22-21.87.17-24.07,2-1.7,2-1.7,4.27,19.24,4.27,21.79-.12,2.55.57,3.36l.7.81s-2.23,18.78-3.62,24.46-2.2,6.94-1.39,7.75a2,2,0,0,0,2.9-.23c.93-.92,11-30.26,12.17-35s-4.75-33.7-4.75-33.7.23-2-8-.34-14,3.35-16.56,5.9Z" style="fill:#263238;stroke:#263238;stroke-linecap:round;stroke-linejoin:round"></path><path d="M387.71,228.34c1.62-.36,3-1,3.8-1.14-1.41-2.82-4.2-7.92-5.52-11-1.55-3.54-3.67-4.85-4.87-4.7,0,0-8.29-.31-10.15,0l0,.14-5,.21-1,.37,0-.25c-2.31-.24-12.62,4.28-12.62,4.28s-1.63,1.21-2.49,1.94-4.15,6.9-7.29,13.07a11.59,11.59,0,0,1,4.3,1.47l2.58,1.56c1.73-2.26,3.32-4.51,4.38-6.21l3.38,27.19,28.37-.81-2.17-23.27C384,230.64,386,228.72,387.71,228.34Z" style="fill:#68BDBE;stroke:#263238;stroke-linecap:round;stroke-linejoin:round"></path><path d="M363.93,208.92a13.9,13.9,0,0,1-4.44-3.24c-2.57-2.57-2.4-6.83-2.05-8.54s.73-4.42,2.6-6,8-2.07,12.94-.36,0,1.88,0,1.88,4.27,2.22,3.07,2.9a5.83,5.83,0,0,1-2.56.68s.68,2.4-.68,2.57-.35,6.14-2.4,7.34A50.79,50.79,0,0,1,363.93,208.92Z" style="fill:#263238;stroke:#263238;stroke-linecap:round;stroke-linejoin:round"></path><path d="M361.53,203.63s-1.53-1.88-1.7.51,2.39,3.24,2.39,3.24Z" style="fill:#fff;stroke:#263238;stroke-linecap:round;stroke-linejoin:round"></path><path d="M371.8,202.24s1.09-2.17,1.78.13-1.62,3.69-1.62,3.69Z" style="fill:#fff;stroke:#263238;stroke-linecap:round;stroke-linejoin:round"></path><path d="M364.37,207.87a24,24,0,0,1,.7,5.32c0,2.67,3.13,5.33,4.05,5.45s2.43-2.67,2.2-4.87a65.17,65.17,0,0,0-1.39-6.67S367.73,205.55,364.37,207.87Z" style="fill:#fff;stroke:#263238;stroke-linecap:round;stroke-linejoin:round"></path><path d="M363.88,197.48c-1.55,1.58-2.79,2.68-2.79,2.68s.55,6.14,1.33,8.26,4.47,4.46,6.14,3.9a5.38,5.38,0,0,0,3.69-4.68c.22-2.57-1-9-1.57-9.94-2.66-.73-4.71-.73-5.9-2.44C364.78,195.26,365.29,196,363.88,197.48Z" style="fill:#fff;stroke:#263238;stroke-linecap:round;stroke-linejoin:round"></path><path d="M376.25,229.91a7.63,7.63,0,0,0-4.18,1.69l-.15.14-.36.3a19.35,19.35,0,0,1-5.16,3c-2.5.95-5.73.5-7.26.2l-.14,0c-.46-.09-.73-.17-.73-.17l0,.1a8.79,8.79,0,0,0-1.54,0c-6.14.44-10.71,6.63-10.19,13.83s5.92,12.68,12.06,12.24a10.31,10.31,0,0,0,6.95-3.56,29.47,29.47,0,0,1,6.57-5.63,21.77,21.77,0,0,1,4-1.95c1.33-.49,2.9-.47,4.16-1.07a8.41,8.41,0,0,0,2.83-2.26,10.74,10.74,0,0,0,2.24-7.52C385,233.73,380.9,229.58,376.25,229.91Z" style="fill:#263238;stroke:#263238;stroke-linecap:round;stroke-linejoin:round"></path><path d="M374.39,226.67a7.63,7.63,0,0,0-4.17,1.69l-.15.13c-.12.11-.25.2-.36.31a19.83,19.83,0,0,1-5.17,3c-2.5,1-5.72.5-7.25.2l-.15,0-.72-.17,0,.09a9.88,9.88,0,0,0-1.54,0c-6.14.44-10.71,6.63-10.19,13.83s5.91,12.68,12.06,12.24a10.26,10.26,0,0,0,6.94-3.56,29.83,29.83,0,0,1,6.58-5.64,22.67,22.67,0,0,1,4-1.95c1.34-.48,2.9-.46,4.17-1.06a8.41,8.41,0,0,0,2.83-2.26,10.77,10.77,0,0,0,2.24-7.52C383.14,230.49,379.05,226.34,374.39,226.67Z" style="fill:#fff;stroke:#263238;stroke-linecap:round;stroke-linejoin:round"></path><rect x="352.45" y="244.69" width="11.46" height="1.16" rx="0.26" transform="translate(472.48 -173.52) rotate(70.86)" style="fill:#263238;stroke:#263238;stroke-linecap:round;stroke-linejoin:round"></rect><path d="M359.63,242s2,6.83,3.82,7.52,6.6-2.2,8.33-3.93a6.61,6.61,0,0,0,2-3.36,9.64,9.64,0,0,1-4.63,2.31c-2.89.58-4.86-2.08-5.56-3.7S360.44,238.78,359.63,242Z" style="fill:#fff;stroke:#263238;stroke-linecap:round;stroke-linejoin:round"></path><circle cx="369.01" cy="239.71" r="3.82" style="fill:#263238;stroke:#263238;stroke-linecap:round;stroke-linejoin:round"></circle><polygon points="373.64 235.31 374.8 239.02 410.88 219.85 409.61 217.53 373.64 235.31" style="fill:#fff;stroke:#263238;stroke-linecap:round;stroke-linejoin:round"></polygon><rect x="415.16" y="219.67" width="0.46" height="1.98" transform="translate(-53.61 184.92) rotate(-23.62)" style="fill:#fff;stroke:#263238;stroke-linecap:round;stroke-linejoin:round"></rect><rect x="418.57" y="218.36" width="0.46" height="1.98" transform="translate(-52.8 186.19) rotate(-23.62)" style="fill:#fff;stroke:#263238;stroke-linecap:round;stroke-linejoin:round"></rect><rect x="421.7" y="216.49" width="0.46" height="1.98" transform="translate(-51.79 187.28) rotate(-23.62)" style="fill:#fff;stroke:#263238;stroke-linecap:round;stroke-linejoin:round"></rect><path d="M409.61,217.53l1.62-1.79,11.14-5.46a6.6,6.6,0,0,1,2.13,2.14,4.61,4.61,0,0,1,.72,3c-.24.59-8.06,3.44-9.25,4.15s-1.78.83-2.37.59a13.36,13.36,0,0,0-2.71-.27Z" style="fill:#fff;stroke:#263238;stroke-linecap:round;stroke-linejoin:round"></path><path d="M417,222.17a.93.93,0,1,0-.92.92A.92.92,0,0,0,417,222.17Z" style="fill:#fff;stroke:#263238;stroke-linecap:round;stroke-linejoin:round"></path><path d="M420.26,220.78a.93.93,0,1,0-.92.92A.92.92,0,0,0,420.26,220.78Z" style="fill:#fff;stroke:#263238;stroke-linecap:round;stroke-linejoin:round"></path><path d="M423.51,219a.93.93,0,1,0-.93.93A.93.93,0,0,0,423.51,219Z" style="fill:#fff;stroke:#263238;stroke-linecap:round;stroke-linejoin:round"></path><path d="M414.71,218.27a.51.51,0,1,0-1,0,.51.51,0,1,0,1,0Z" style="fill:#fff;stroke:#263238;stroke-linecap:round;stroke-linejoin:round"></path><path d="M418.29,216.45a.51.51,0,1,0-.51.52A.51.51,0,0,0,418.29,216.45Z" style="fill:#fff;stroke:#263238;stroke-linecap:round;stroke-linejoin:round"></path><path d="M422,214.64a.51.51,0,1,0-.51.51A.51.51,0,0,0,422,214.64Z" style="fill:#fff;stroke:#263238;stroke-linecap:round;stroke-linejoin:round"></path><path d="M413.8,215.89a.51.51,0,0,0-1,0,.51.51,0,1,0,1,0Z" style="fill:#fff;stroke:#263238;stroke-linecap:round;stroke-linejoin:round"></path><path d="M417.38,214.07a.51.51,0,1,0-.51.51A.51.51,0,0,0,417.38,214.07Z" style="fill:#fff;stroke:#263238;stroke-linecap:round;stroke-linejoin:round"></path><path d="M421.13,212.25a.51.51,0,1,0-.51.51A.51.51,0,0,0,421.13,212.25Z" style="fill:#fff;stroke:#263238;stroke-linecap:round;stroke-linejoin:round"></path><path d="M401.87,228l.71-3.68s-1.66-2.25-1.54-2.84,3.44-2.61,4.74-2.25,2.73,2.6,2,4-3.68,4.5-4.51,4.62" style="fill:#fff;stroke:#263238;stroke-linecap:round;stroke-linejoin:round"></path><path d="M402.23,220.75a14.57,14.57,0,0,1,2.26,3,2.43,2.43,0,0,1-.24,1.67" style="fill:none;stroke:#263238;stroke-linecap:round;stroke-linejoin:round"></path><path d="M403.78,219.56s1.9,2.38,2,3.21.24,1.9.24,1.9" style="fill:none;stroke:#263238;stroke-linecap:round;stroke-linejoin:round"></path><path d="M405,219.21s2.38,2.61,2.38,3.32a2.83,2.83,0,0,1-.24,1.19" style="fill:none;stroke:#263238;stroke-linecap:round;stroke-linejoin:round"></path><path d="M339.05,240.42a8.43,8.43,0,0,1,6.16-1.66c3.68.48,5.34,1.19,9.6,1.19s6.05-.24,6.76-.71,1.7-1.64,2.65-1.76a11.16,11.16,0,0,1,3.28.74s.47.24-.12.59a6.46,6.46,0,0,1-2.34.31,23.14,23.14,0,0,1,4.75,1.72c.3.19.12.65.08.74-.2.47-4.71-.64-4.71-.64a17.27,17.27,0,0,0,2.75,1.54c.59.12,1.63,1.15.71,1.24a16.45,16.45,0,0,1-3.77-.89l2.69,1.74a.52.52,0,0,1-.26,1h0a16.61,16.61,0,0,1-3.51-1.21s2,2.2,1.88,2.25c-.79.53-1.1-.34-2.64-1.17A7.53,7.53,0,0,1,360.5,243a128.06,128.06,0,0,1-15.05,3.32c-7.35,1.07-9.14-1.53-8.67-2.83a9.66,9.66,0,0,1,1.2-2.27" style="fill:#fff;stroke:#263238;stroke-linecap:round;stroke-linejoin:round"></path><polygon points="299.46 355.57 313.61 385.83 474.15 385.83 459.51 341.91 459.51 330.69 454.35 314.99 299.46 355.57" style="opacity:0.30000000000000004"></polygon><polyline points="297.11 318.26 297.11 254.9 448.78 254.9 448.78 319.57" style="fill:none;stroke:#263238;stroke-linecap:round;stroke-linejoin:round;stroke-width:4px"></polyline><line x1="346.83" y1="264.18" x2="346.83" y2="317.64" style="fill:none;stroke:#263238;stroke-linecap:round;stroke-linejoin:round;stroke-width:3px"></line><line x1="397.69" y1="264.18" x2="397.69" y2="317.64" style="fill:none;stroke:#263238;stroke-linecap:round;stroke-linejoin:round;stroke-width:3px"></line><line x1="297.77" y1="264.05" x2="446.82" y2="264.05" style="fill:none;stroke:#263238;stroke-linecap:round;stroke-linejoin:round;stroke-width:3px"></line><rect x="293.84" y="318.92" width="157.55" height="39.22" style="fill:#fff;stroke:#263238;stroke-linecap:round;stroke-linejoin:round"></rect><rect x="433.39" y="318.92" width="18.01" height="39.22" style="fill:#ababab;stroke:#263238;stroke-linecap:round;stroke-linejoin:round"></rect><rect x="308.47" y="318.92" width="128.3" height="39.22" style="fill:#fff;stroke:#263238;stroke-linecap:round;stroke-linejoin:round"></rect><rect x="293.84" y="318.92" width="157.55" height="9.89" style="fill:#263238;stroke:#263238;stroke-linecap:round;stroke-linejoin:round"></rect><rect x="291.45" y="314.99" width="162.35" height="11.11" style="fill:#fff;stroke:#263238;stroke-linecap:round;stroke-linejoin:round"></rect><rect x="430.91" y="314.99" width="22.89" height="11.11" style="fill:#ababab;stroke:#263238;stroke-linecap:round;stroke-linejoin:round"></rect><rect x="307.16" y="314.99" width="130.92" height="11.11" style="fill:#fff;stroke:#263238;stroke-linecap:round;stroke-linejoin:round"></rect></g><g id="balcony-1--inject-10"><rect x="162.28" y="143.26" width="46.63" height="180.15" style="fill:none;stroke:#263238;stroke-linecap:round;stroke-linejoin:round"></rect><rect x="165.5" y="148.85" width="40.2" height="169.37" style="fill:none;stroke:#263238;stroke-linecap:round;stroke-linejoin:round"></rect><line x1="170.29" y1="225.25" x2="170.29" y2="234.47" style="fill:none;stroke:#263238;stroke-linecap:round;stroke-linejoin:round"></line><line x1="170.29" y1="148.94" x2="170.29" y2="219.25" style="fill:none;stroke:#263238;stroke-linecap:round;stroke-linejoin:round"></line><line x1="176.29" y1="168.58" x2="176.29" y2="278.25" style="fill:none;stroke:#263238;stroke-linecap:round;stroke-linejoin:round"></line><line x1="176.29" y1="148.94" x2="176.29" y2="162.58" style="fill:none;stroke:#263238;stroke-linecap:round;stroke-linejoin:round"></line><line x1="182.29" y1="238.92" x2="182.29" y2="241.92" style="fill:none;stroke:#263238;stroke-linecap:round;stroke-linejoin:round"></line><line x1="182.29" y1="148.94" x2="182.29" y2="232.92" style="fill:none;stroke:#263238;stroke-linecap:round;stroke-linejoin:round"></line><line x1="188.29" y1="148.94" x2="188.29" y2="234.47" style="fill:none;stroke:#263238;stroke-linecap:round;stroke-linejoin:round"></line><line x1="194.29" y1="148.94" x2="194.29" y2="234.47" style="fill:none;stroke:#263238;stroke-linecap:round;stroke-linejoin:round"></line><line x1="200.29" y1="182.92" x2="200.29" y2="249.92" style="fill:none;stroke:#263238;stroke-linecap:round;stroke-linejoin:round"></line><line x1="200.29" y1="148.94" x2="200.29" y2="176.58" style="fill:none;stroke:#263238;stroke-linecap:round;stroke-linejoin:round"></line><rect x="72.42" y="143.26" width="85.87" height="180" style="fill:none;stroke:#263238;stroke-linecap:round;stroke-linejoin:round"></rect><rect x="117.58" y="176.97" width="34.35" height="27.35" style="fill:none;stroke:#263238;stroke-linecap:round;stroke-linejoin:round"></rect><rect x="117.58" y="208.14" width="34.35" height="27.35" style="fill:none;stroke:#263238;stroke-linecap:round;stroke-linejoin:round"></rect><rect x="117.58" y="270.47" width="34.35" height="27.35" style="fill:none;stroke:#263238;stroke-linecap:round;stroke-linejoin:round"></rect><rect x="117.58" y="239.3" width="34.35" height="27.35" style="fill:none;stroke:#263238;stroke-linecap:round;stroke-linejoin:round"></rect><rect x="117.58" y="148.98" width="34.35" height="24.17" style="fill:none;stroke:#263238;stroke-linecap:round;stroke-linejoin:round"></rect><rect x="78.78" y="148.98" width="34.35" height="24.17" style="fill:none;stroke:#263238;stroke-linecap:round;stroke-linejoin:round"></rect><rect x="78.78" y="176.97" width="34.35" height="27.35" style="fill:none;stroke:#263238;stroke-linecap:round;stroke-linejoin:round"></rect><rect x="117.58" y="301.64" width="34.35" height="21.63" style="fill:none;stroke:#263238;stroke-linecap:round;stroke-linejoin:round"></rect><rect x="78.78" y="301.64" width="34.35" height="21.63" style="fill:none;stroke:#263238;stroke-linecap:round;stroke-linejoin:round"></rect><rect x="78.78" y="208.14" width="34.35" height="27.35" style="fill:none;stroke:#263238;stroke-linecap:round;stroke-linejoin:round"></rect><rect x="78.78" y="270.47" width="34.35" height="27.35" style="fill:none;stroke:#263238;stroke-linecap:round;stroke-linejoin:round"></rect><rect x="78.78" y="239.3" width="34.35" height="27.35" style="fill:none;stroke:#263238;stroke-linecap:round;stroke-linejoin:round"></rect><path d="M108.68,264.88s11-9.95,11.74-10.53,1.77-4.95,2.55-5.53,3-1.41,3.83-.82-.66,1.29-.92,2.29a14.82,14.82,0,0,1-.69,3.14c-.5,1-14.13,14.92-14.13,14.92Z" style="fill:#fff;stroke:#263238;stroke-linecap:round;stroke-linejoin:round"></path><path d="M107.41,236.22s-.53,6.67-2.06,8.84-4.95.16-4.95.16-1.17,3.75-.09,6.28,4.26,3.83,6.19,5.37,2.42.51,4,4.77,1.33,6.58,3.84,10.67a15.52,15.52,0,0,0,6.44,5.75,124.06,124.06,0,0,1-10.61,7,17.72,17.72,0,0,1-10.19,2.44s-.9-8.86-2.66-13.73a135.83,135.83,0,0,1-4.69-18.27c-1.17-6.12.92-10.62-.33-13.32s-3-5.38-2.72-7S105.12,231.78,107.41,236.22Z" style="fill:#fff;stroke:#263238;stroke-linecap:round;stroke-linejoin:round"></path><path d="M137.54,286.57s7.77.53,12.93,3.49,24.3,25.75,24.3,25.75l-1.56,1.92s-22-18.43-27.5-20-25.44-1.53-25.44-1.53A31.82,31.82,0,0,1,137.54,286.57Z" style="fill:#263238;stroke:#263238;stroke-linecap:round;stroke-linejoin:round"></path><path d="M112.23,276.25s4,4.75,6.08,5,28.52-16.1,31.57-6.31,7.85,42.68,7.85,42.68l-3.84,1.41s-9.71-31.94-11.45-36.1-10.54,10.55-20.6,13.8-14.76,1.65-17-.92C98.51,288.69,101.43,278.91,112.23,276.25Z" style="fill:#263238;stroke:#263238;stroke-linecap:round;stroke-linejoin:round"></path><path d="M157.73,317.65a24.32,24.32,0,0,0,5.37.81c2.1-.06,4.85-.47,4.86.18s-3.34,1.88-6.38,3.1-4.63,2.41-5.61,1.95-2.08-4.63-2.08-4.63Z" style="fill:#fff;stroke:#263238;stroke-linecap:round;stroke-linejoin:round"></path><path d="M167.74,318.41c.13,0,.22.12.22.23,0,.64-3.34,1.88-6.38,3.1s-4.63,2.41-5.61,1.95a1.06,1.06,0,0,1-.41-.39Z" style="fill:#fff;stroke:#263238;stroke-linecap:round;stroke-linejoin:round"></path><path d="M174.77,315.81s3.34-.54,4.34-.74,1.78-2.38,3.29-2.67.3,4,.13,5.24-6.33,4.72-7,4.8-2.33-4.71-2.33-4.71Z" style="fill:#fff;stroke:#263238;stroke-linecap:round;stroke-linejoin:round"></path><path d="M174.9,321.75c1.62-.94,5.84-3.45,6.37-4.44a13.3,13.3,0,0,0,1.27-4.73,1.35,1.35,0,0,1,0-.18c1.23.07.12,4,0,5.24s-6.33,4.72-7,4.8C175.37,322.46,175.15,322.18,174.9,321.75Z" style="fill:#fff;stroke:#263238;stroke-linecap:round;stroke-linejoin:round"></path><path d="M120.74,278.06a124.06,124.06,0,0,1-10.61,7,17.72,17.72,0,0,1-10.19,2.44s-.9-8.86-2.66-13.73-4.87-11.4-6-17.52a10.13,10.13,0,0,1,.76-4.94,5.43,5.43,0,0,1,2.89-.43c3.44.49,6,5.09,8.1,4.83a3.4,3.4,0,0,0,1.4-.5c.85.67,1.61,1.24,2.11,1.64,1.93,1.54,2.42.51,4,4.77s1.33,6.58,3.84,10.67A15.52,15.52,0,0,0,120.74,278.06Z" style="fill:#68BDBE;stroke:#263238;stroke-linecap:round;stroke-linejoin:round"></path><path d="M81.88,250.12c2.07-3.32,5.08-7.39,6.34-9.62s.43-3.33.86-4.65,10.55-3.52,13.6-.24c0,0-.26.74-.7,1.82.48-.14.79-.21.79-.21s-5,13.26-7.88,13.68c-2.18.32-3.48-1.88-4-3-.43.46-.51,1.17,0,2.35,1,2.45-1.08,8.48,1.81,13.63s4.85,10.13-.23,11.79-12.26-1.09-13.75-7.61S79.81,253.45,81.88,250.12Z" style="fill:#263238;stroke:#263238;stroke-linecap:round;stroke-linejoin:round"></path><path d="M99.87,225.38a36.3,36.3,0,0,1,5,1.4c2.3.88,2.86,1.83,2.93,3.45s-.44,6-.44,6a49.51,49.51,0,0,1-9,1.19,38.18,38.18,0,0,1-9.26-.75s-1.41-7.53-.31-8.39,5.28-1.68,7.36-2.25S98.38,224.63,99.87,225.38Z" style="fill:#68BDBE;stroke:#263238;stroke-linecap:round;stroke-linejoin:round"></path><path d="M96.44,237.33a14.59,14.59,0,0,1-7.1,4.67c-4.8,1.5-8.94-.76-9.14-1.56s8.92-3.78,8.92-3.78Z" style="fill:#68BDBE;stroke:#263238;stroke-linecap:round;stroke-linejoin:round"></path><path d="M131.91,243.31c-.23-.12-1,.4-1.79,1.16l-4.28,4.35c-.75.76-1.22,1.51-1,1.66s.94-.35,1.7-1.1l4.46-4.47C131.71,244.15,132.14,243.43,131.91,243.31Z" style="fill:#fff;stroke:#263238;stroke-linecap:round;stroke-linejoin:round"></path><path d="M93,253.31s2.26-1.34,5.4,1.15c2,1.58,3.5,7,5.13,10.33,1.27,2.65,2.35,5.46,3.35,4.91s15.58-14.24,16.2-15.31,1.06-4.82,1.8-5.17A15,15,0,0,0,126.8,248s2.66-1.58,3-1.19.78-.57.29.39a10.57,10.57,0,0,1-1.95,2.26s.69,3.11-.25,4-2.5,2.06-2.5,2.06-11.43,15.59-13.9,18.24-4.91,4.77-8,3S91.62,260,91.24,257,91.73,253.59,93,253.31Z" style="fill:#fff;stroke:#263238;stroke-linecap:round;stroke-linejoin:round"></path><path d="M105.31,299.51a1.11,1.11,0,0,0,.63-.19,1.17,1.17,0,0,0,.35-1.62c-9.36-14.5-15.57-50-15.63-50.37a1.17,1.17,0,1,0-2.31.4c.25,1.47,6.35,36.34,16,51.25A1.19,1.19,0,0,0,105.31,299.51Z" style="fill:#fff;stroke:#263238;stroke-linecap:round;stroke-linejoin:round"></path><path d="M107.62,301.22c5.06,0,10-1.32,16.91-3.3a48.92,48.92,0,0,1,16.59-1.51,1.18,1.18,0,0,0,1.29-1,1.16,1.16,0,0,0-1-1.29,50.33,50.33,0,0,0-17.49,1.58c-9,2.58-13.54,3.64-19.08,3.06a1.18,1.18,0,0,0-.24,2.34C105.6,301.16,106.61,301.22,107.62,301.22Z" style="fill:#fff;stroke:#263238;stroke-linecap:round;stroke-linejoin:round"></path><path d="M91.36,327.09a1.17,1.17,0,0,0,1-.57L121,279.14l21.69,46.65a1.17,1.17,0,0,0,2.13-1l-22.62-48.64a1.15,1.15,0,0,0-1-.68,1.17,1.17,0,0,0-1.07.56L90.36,325.31a1.17,1.17,0,0,0,.4,1.61A1.21,1.21,0,0,0,91.36,327.09Z" style="fill:#fff;stroke:#263238;stroke-linecap:round;stroke-linejoin:round"></path><path d="M97.25,281.23c10.89,0,20.76-2.86,25.51-4.24,1.18-.34,2.41-.7,2.7-.72.65,0,2.74,1.33,4.2,2.53a1.18,1.18,0,0,0,1.49-1.82c-.88-.71-3.88-3.05-5.7-3.05a15.94,15.94,0,0,0-3.35.81c-4.64,1.34-14.3,4.15-24.85,4.15a1.17,1.17,0,1,0,0,2.34Z" style="fill:#fff;stroke:#263238;stroke-linecap:round;stroke-linejoin:round"></path><polygon points="66.71 355.57 80.86 385.83 241.4 385.83 226.76 341.91 226.76 330.69 221.6 314.99 66.71 355.57" style="opacity:0.30000000000000004"></polygon><polyline points="64.92 318.26 64.92 254.9 216.59 254.9 216.59 319.57" style="fill:none;stroke:#263238;stroke-linecap:round;stroke-linejoin:round;stroke-width:4px"></polyline><line x1="114.64" y1="264.18" x2="114.64" y2="317.64" style="fill:none;stroke:#263238;stroke-linecap:round;stroke-linejoin:round;stroke-width:3px"></line><line x1="165.5" y1="264.18" x2="165.5" y2="317.64" style="fill:none;stroke:#263238;stroke-linecap:round;stroke-linejoin:round;stroke-width:3px"></line><line x1="65.57" y1="264.05" x2="214.63" y2="264.05" style="fill:none;stroke:#263238;stroke-linecap:round;stroke-linejoin:round;stroke-width:3px"></line><rect x="61.65" y="318.92" width="157.55" height="39.22" style="fill:#fff;stroke:#263238;stroke-linecap:round;stroke-linejoin:round"></rect><rect x="201.2" y="318.92" width="18.01" height="39.22" style="fill:#ababab;stroke:#263238;stroke-linecap:round;stroke-linejoin:round"></rect><rect x="76.28" y="318.92" width="128.3" height="39.22" style="fill:#fff;stroke:#263238;stroke-linecap:round;stroke-linejoin:round"></rect><rect x="61.65" y="318.92" width="157.55" height="9.89" style="fill:#263238;stroke:#263238;stroke-linecap:round;stroke-linejoin:round"></rect><rect x="59.25" y="314.99" width="162.35" height="11.11" style="fill:#fff;stroke:#263238;stroke-linecap:round;stroke-linejoin:round"></rect><rect x="198.71" y="314.99" width="22.89" height="11.11" style="fill:#ababab;stroke:#263238;stroke-linecap:round;stroke-linejoin:round"></rect><rect x="74.97" y="314.99" width="130.92" height="11.11" style="fill:#fff;stroke:#263238;stroke-linecap:round;stroke-linejoin:round"></rect></g></svg>