<svg xmlns="http://www.w3.org/2000/svg" viewBox="0 0 750 500"><g id="background-complete--inject-36"><path d="M573.15,430.19a2,2,0,0,1,0-.3c0-.21,0-.49,0-.84,0-.77,0-1.84,0-3.22,0-2.82-.05-6.87-.09-11.95l.17.17-50.59.09c.11-.12-.27.26.25-.26h0v8.33q0,4.09,0,8l-.25-.25,36.13.11,10.6.07,2.86,0h.74l.27,0h-.23l-.72,0-2.8,0-10.54.07-36.31.12h-.25v-.25q0-3.87,0-8v-8.33h0c.52-.53.15-.15.27-.26l50.59.09h.17v.17c0,5.12-.07,9.21-.09,12.05,0,1.36,0,2.43-.05,3.18,0,.34,0,.61,0,.82S573.15,430.19,573.15,430.19Z" style="fill:#ebebeb"></path><path d="M600.37,446.43s0-.1,0-.29,0-.5,0-.85c0-.76,0-1.84,0-3.22,0-2.82-.06-6.87-.1-11.95l.17.17-50.59.09.26-.26h0v4.2c0,1.39,0,2.77,0,4.13v8l-.25-.25,36.13.12,10.59.07,2.86,0,.75,0h.26s-.07,0-.23,0h-.72l-2.8,0-10.54.07-36.3.11h-.26V430.13h0l.26-.26,50.59.09h.17v.17c0,5.12-.07,9.21-.09,12.05,0,1.37,0,2.43,0,3.19,0,.33,0,.6,0,.81A1.1,1.1,0,0,1,600.37,446.43Z" style="fill:#ebebeb"></path><path d="M675,52.84a.94.94,0,0,1,0-.29c0-.22,0-.5,0-.85,0-.76,0-1.84,0-3.22,0-2.82,0-6.87-.09-11.95l.17.17-50.6.09c.12-.11-.26.26.26-.26h0v8.33q0,4.1,0,8l-.25-.25,36.13.12,10.6.07,2.85,0,.75,0H675l-.24,0H674l-2.81,0L660.68,53l-36.3.12h-.25v-.26q0-3.87,0-8V36.54h0l.26-.26,50.6.09h.17v.17c0,5.12-.07,9.21-.09,12,0,1.37,0,2.43,0,3.19l0,.81A2.17,2.17,0,0,1,675,52.84Z" style="fill:#ebebeb"></path><path d="M463.25,242.16s0-.11,0-.3,0-.49,0-.84c0-.77,0-1.84,0-3.22,0-2.82-.06-6.87-.1-12l.17.16-50.59.1c.11-.12-.26.25.26-.26h0v4.18c0,1.4,0,2.77,0,4.14v8l-.25-.26,36.13.12,10.59.07,2.86,0H463l.26,0H463l-.72,0-2.8,0-10.54.07-36.3.12h-.26V225.87h0l.26-.27,50.59.1h.17v.17c0,5.12-.07,9.21-.09,12.05,0,1.36,0,2.43,0,3.18,0,.34,0,.61,0,.81A1.39,1.39,0,0,1,463.25,242.16Z" style="fill:#ebebeb"></path><rect x="674.68" y="183.2" width="51.01" height="16.31" style="fill:#ebebeb"></rect><path d="M739.65,183.08a2,2,0,0,1,0-.3c0-.22,0-.49,0-.84l0-3.22c0-2.82-.05-6.87-.09-12l.17.17-51,.09.25-.25h0v16.29l-.26-.26,36.43.12,10.69.07,2.88,0,.75,0,.27,0h-.24l-.72,0-2.83,0-10.63.07-36.6.12h-.25v-.25c0-2.58,0-5.25,0-8v-8.32h0l.27-.27,51,.1h.17v.16c0,5.13-.07,9.22-.1,12.06,0,1.36,0,2.43,0,3.18,0,.34,0,.61,0,.81S739.65,183.08,739.65,183.08Z" style="fill:#e0e0e0"></path><path d="M694.35,215.83a1.34,1.34,0,0,1,0-.32l0-.89c0-.82,0-1.93-.06-3.32,0-2.89-.06-6.93-.11-11.78l.22.22-19.67,0,.26-.26h0v4.33c0,1.43,0,2.83,0,4.2,0,2.73,0,5.33,0,7.75l-.23-.23,14.15.12,4,.06,1.09,0,.39,0a1.34,1.34,0,0,1-.34,0l-1,0-4,.06-14.3.12h-.23v-.24c0-2.42,0-5,0-7.75,0-1.37,0-2.77,0-4.2v-4.33h0c-.23.24.32-.32.26-.26l19.67,0h.22v.22c-.05,4.9-.09,9-.12,11.91,0,1.38,0,2.47-.05,3.28S694.36,215.85,694.35,215.83Z" style="fill:#e0e0e0"></path><path d="M441.62,363.73a14.2,14.2,0,0,1,8.8-1.07,7.41,7.41,0,0,1,4.35,1.94c1.09,1.2,1.29,3.32.05,4.35a4.21,4.21,0,0,1-2.75.69c-2.32,0-4.9-.44-6.76,1-1.06.8-1.77,2.13-3,2.52a3,3,0,0,1-3.3-1.46,5.14,5.14,0,0,1-.37-3.78A5.77,5.77,0,0,1,441.62,363.73Z" style="fill:#ebebeb"></path><path d="M435.49,351.89c1.63,2.34,4.82,1.57,6.29.14s2.1-3.5,2.67-5.47c1.29-4.51,2.6-9.24,1.64-13.83a7.6,7.6,0,0,0-1.77-3.75,4,4,0,0,0-3.8-1.27c-1.61.42-2.6,2-3.32,3.49a33,33,0,0,0-3.26,14.14,11.38,11.38,0,0,0,1.55,6.55" style="fill:#ebebeb"></path><path d="M431,355.25a8.48,8.48,0,0,0,1.32-7.83,15.06,15.06,0,0,0-4.63-6.73,25,25,0,0,0-8.31-4.9,8.87,8.87,0,0,0-3.73-.63,3.91,3.91,0,0,0-3.14,1.89c-.87,1.67,0,3.69.87,5.34a63.64,63.64,0,0,0,5.46,8.31c1.63,2.1,3.51,4.18,6,5.14s5.08.84,6.4-.89" style="fill:#ebebeb"></path><path d="M435.38,387.16a4.7,4.7,0,0,0,.14-1.06c.08-.77.17-1.74.29-2.9a40.08,40.08,0,0,1,.65-4.25,32.71,32.71,0,0,1,1.54-5,18.48,18.48,0,0,1,2.57-4.54,9.56,9.56,0,0,1,3.24-2.7,9.32,9.32,0,0,1,2.73-.85,5.51,5.51,0,0,0,1.06-.15,4.74,4.74,0,0,0-1.08,0,8.41,8.41,0,0,0-2.85.74,9.74,9.74,0,0,0-3.42,2.72,17.93,17.93,0,0,0-2.65,4.64,31.42,31.42,0,0,0-1.54,5.1,34.88,34.88,0,0,0-.56,4.3c-.1,1.24-.13,2.23-.15,2.92A5,5,0,0,0,435.38,387.16Z" style="fill:#e0e0e0"></path><path d="M435.58,384.93a2.66,2.66,0,0,0,0-.49V383c0-1.22,0-3,.06-5.18.11-4.37.49-9.08,1.21-15.71.69-6.24,1.62-13.5,2.59-18.22.21-1.08.42-2,.62-2.89s.35-1.58.51-2.17.24-1,.33-1.37A1.63,1.63,0,0,0,441,337a3.17,3.17,0,0,0-.17.46c-.11.36-.24.81-.41,1.36s-.36,1.31-.58,2.15-.45,1.81-.68,2.88a157.92,157.92,0,0,0-2.72,16.91c-.73,6.65-1.06,12.7-1.09,17.08,0,2.2,0,4,.08,5.19,0,.58.06,1,.09,1.41A1.54,1.54,0,0,0,435.58,384.93Z" style="fill:#e0e0e0"></path><path d="M435.6,373.26a8.84,8.84,0,0,0,0-1.48,38.84,38.84,0,0,0-.45-4,52.1,52.1,0,0,0-1.29-5.81,48.16,48.16,0,0,0-2.44-6.88A36.55,36.55,0,0,0,424.28,344a19.31,19.31,0,0,0-1.68-1.57c-.26-.21-.49-.43-.72-.6l-.65-.45a11.61,11.61,0,0,0-1.24-.8,47.13,47.13,0,0,1,4.06,3.63,38.5,38.5,0,0,1,7,11.08,54.78,54.78,0,0,1,2.45,6.81c.63,2.14,1.06,4.1,1.38,5.76s.48,3,.58,3.95A10,10,0,0,0,435.6,373.26Z" style="fill:#e0e0e0"></path><polygon points="424.32 393.85 425.49 409.88 446.08 409.88 447.25 393.85 424.32 393.85" style="fill:#e0e0e0"></polygon><rect x="422.33" y="387.54" width="27.38" height="6.32" style="fill:#e0e0e0"></rect><polygon points="422.33 409.27 422.33 411.02 423.62 411.02 449.25 411.02 449.25 409.27 422.33 409.27" style="fill:#ebebeb"></polygon><polygon points="424.88 414.1 423.62 411.02 448.27 411.02 446.8 414.1 424.88 414.1" style="fill:#e0e0e0"></polygon><path d="M446.87,399.09a.63.63,0,0,1-.1.15l-.31.41-1.19,1.53-.06.07,0-.07-3-4.08h.17c-.87,1.25-1.85,2.63-2.9,4.11l-.09.13-.1-.12-3.44-4.09h.2l-.19.24-3.08,3.86-.1.13-.1-.14-2.9-4.1h.17l-3.58,4.08-.06.07,0-.08L425,399.3l-.29-.5c-.06-.12-.09-.18-.08-.18l.12.16.31.48,1.18,1.85h-.11c.91-1.08,2.11-2.48,3.52-4.13l.08-.1.08.11,2.93,4.09h-.19l3.07-3.87.19-.24.09-.12.1.12,3.44,4.1h-.2c1.06-1.48,2.05-2.85,2.93-4.09l.09-.12.08.12,2.89,4.12h-.11l1.25-1.5c.14-.15.25-.28.33-.38Z" style="fill:#f5f5f5"></path><path d="M447.54,393.75c0,.07-5.16.13-11.53.13s-11.52-.06-11.52-.13,5.16-.13,11.52-.13S447.54,393.68,447.54,393.75Z" style="fill:#f5f5f5"></path><path d="M448.58,411.19c0,.07-5.61.13-12.53.13s-12.52-.06-12.52-.13,5.61-.12,12.52-.12S448.58,411.12,448.58,411.19Z" style="fill:#f5f5f5"></path><rect x="583.29" y="69.28" width="51.01" height="16.31" style="fill:#e0e0e0"></rect><path d="M648.26,69.16a2,2,0,0,1,0-.3c0-.22,0-.49,0-.84,0-.77,0-1.84,0-3.23,0-2.81,0-6.86-.09-12l.17.17-51,.09.26-.26h0v4.18c0,1.39,0,2.77,0,4.13v8l-.25-.26,36.42.12,10.69.07,2.88,0,.75,0a.91.91,0,0,1,.27,0H648l-.73,0-2.83,0-10.62.07-36.6.12H597V52.87h0c.52-.52.15-.14.27-.26l51,.09h.17v.17c0,5.13-.07,9.22-.09,12.06,0,1.36,0,2.43-.05,3.18,0,.34,0,.6,0,.81A1.39,1.39,0,0,1,648.26,69.16Z" style="fill:#ebebeb"></path><rect x="102.37" y="417.78" width="51.01" height="16.31" style="fill:#ebebeb"></rect><rect x="147.4" y="385" width="51.01" height="16.31" style="fill:#e0e0e0"></rect><path d="M185,417.78s0-.1,0-.3,0-.49,0-.84c0-.76,0-1.84,0-3.22,0-2.82-.06-6.87-.1-11.95l.17.17-51,.09.26-.26h0v8.33q0,4.1,0,8l-.25-.25,36.42.12,10.69.07,2.88,0,.76,0H185s-.07,0-.23,0H184l-2.82,0-10.63.07-36.6.11h-.26V401.48h0l.26-.26,51,.09h.17v.17c0,5.12-.07,9.21-.09,12l0,3.19c0,.33,0,.6,0,.81A1.1,1.1,0,0,1,185,417.78Z" style="fill:#e0e0e0"></path><rect x="16.73" y="340.91" width="51.01" height="16.31" style="fill:#e0e0e0"></rect><polygon points="309.99 490.84 301.51 490.84 270.75 417.88 279.24 417.88 309.99 490.84" style="fill:#e0e0e0"></polygon><polygon points="374.4 490.84 365.92 490.84 335.57 417.88 344.06 417.88 374.4 490.84" style="fill:#e0e0e0"></polygon><path d="M349,434.93c0,.14-14.51.26-32.41.26s-32.42-.12-32.42-.26,14.51-.26,32.42-.26S349,434.79,349,434.93Z" style="fill:#e0e0e0"></path><path d="M355.38,452.72c0,.14-14.52.26-32.42.26s-32.41-.12-32.41-.26,14.51-.27,32.41-.27S355.38,452.57,355.38,452.72Z" style="fill:#e0e0e0"></path><path d="M361.71,470.5c0,.14-14.52.26-32.42.26s-32.41-.12-32.41-.26,14.51-.26,32.41-.26S361.71,470.36,361.71,470.5Z" style="fill:#e0e0e0"></path><path d="M368,488.28c0,.15-14.51.27-32.41.27s-32.42-.12-32.42-.27,14.51-.26,32.42-.26S368,488.14,368,488.28Z" style="fill:#e0e0e0"></path><rect x="267.06" y="57.54" width="51.01" height="16.31" style="fill:#e0e0e0"></rect><path d="M305.66,57.54a2,2,0,0,1,0-.3c0-.21,0-.49,0-.84,0-.76,0-1.84,0-3.22,0-2.82-.05-6.87-.09-12l.17.17-51,.09c.11-.12-.27.26.26-.26h0v4.19c0,1.4,0,2.77,0,4.14v8l-.25-.25,36.42.11,10.69.07,2.88,0h.75l.27,0-.24,0h-.72l-2.83,0-10.62.07-36.6.12h-.26V45.43c0-.69,0-1.39,0-2.09v-2.1h0c.52-.52.15-.15.27-.26l51,.09h.17v.17c0,5.12-.07,9.21-.09,12.05,0,1.36,0,2.43-.05,3.18,0,.34,0,.61,0,.82A1.21,1.21,0,0,1,305.66,57.54Z" style="fill:#e0e0e0"></path><rect x="324.65" y="183.41" width="51.01" height="16.31" style="fill:#f5f5f5"></rect><path d="M389.61,183.29s0-.11,0-.3,0-.49,0-.84c0-.76,0-1.84,0-3.22,0-2.82-.06-6.87-.1-12l.17.17-51,.09.26-.26h0v8.33c0,2.72,0,5.39,0,8l-.25-.25,36.42.11,10.69.07,2.88,0h.76l.26,0-.23,0h-.72l-2.83,0-10.63.07-36.6.12h-.25v-.25c0-2.58,0-5.25,0-8V167h0l.26-.26,51,.09h.17V167c0,5.12-.07,9.21-.09,12.05l0,3.18c0,.34,0,.61,0,.82A1.21,1.21,0,0,1,389.61,183.29Z" style="fill:#ebebeb"></path><path d="M344.31,216.05s0-.12,0-.33,0-.53,0-.88q0-1.25-.06-3.33c0-2.89-.07-6.93-.11-11.78l.21.22-19.66,0c-.06.06.49-.49.26-.25h0v4.34c0,1.43,0,2.83,0,4.2,0,2.73,0,5.34,0,7.76l-.23-.24,14.15.12,4,.06,1.08,0a2.06,2.06,0,0,1,.39,0l-.33,0-1,0-4,.06-14.3.12h-.23v-.23c0-2.42,0-5,0-7.76v-8.54h0c-.24.23.31-.32.26-.27l19.66.05h.22v.21c0,4.91-.08,9-.11,11.92q0,2.06-.06,3.27A7.32,7.32,0,0,1,344.31,216.05Z" style="fill:#ebebeb"></path></g><g id="window-2--inject-36"><rect x="463.66" y="89.93" width="211.31" height="327.95" style="fill:#455a64"></rect><rect x="469" y="100.23" width="199.39" height="312.44" style="fill:#e0e0e0"></rect><rect x="468.45" y="95.62" width="99.61" height="322.25" style="fill:#455a64"></rect><rect x="470.97" y="99.37" width="94.57" height="313.29" style="fill:#fafafa"></rect><path d="M489.62,220.54c-.1-.11,13.37-13.75,30.09-30.47s30.37-30.2,30.47-30.1-13.37,13.74-30.1,30.47S489.72,220.64,489.62,220.54Z" style="fill:#263238"></path><path d="M497.76,200.54c-.1-.1,13.37-13.74,30.09-30.46s30.37-30.2,30.47-30.1-13.37,13.74-30.1,30.47S497.86,200.64,497.76,200.54Z" style="fill:#263238"></path><rect x="469.33" y="147.78" width="98.72" height="2.76" style="fill:#455a64"></rect><rect x="469.33" y="197.32" width="98.72" height="2.76" style="fill:#455a64"></rect><rect x="469.33" y="246.86" width="98.72" height="2.76" style="fill:#455a64"></rect><rect x="469.33" y="292.96" width="98.72" height="2.76" style="fill:#455a64"></rect><rect x="469.33" y="339.05" width="98.72" height="2.76" style="fill:#455a64"></rect><rect x="469.33" y="385.15" width="98.72" height="2.76" style="fill:#455a64"></rect><path d="M502.63,413.55h-2.11q0-119.57,0-239.13,0-38.25,0-76.52c0-1.35,1.24-3.26,2.13-2.24q0,151.13,0,302.26Z" style="fill:#455a64"></path><rect x="533.37" y="95.62" width="2.11" height="317.93" style="fill:#455a64"></rect><rect x="567.61" y="95.62" width="101.88" height="322.25" style="fill:#455a64"></rect><rect x="570.2" y="99.37" width="96.73" height="313.29" style="fill:#fafafa"></rect><rect x="568.52" y="147.78" width="100.98" height="2.76" style="fill:#455a64"></rect><rect x="568.52" y="197.32" width="100.98" height="2.76" style="fill:#455a64"></rect><rect x="568.52" y="246.86" width="100.98" height="2.76" style="fill:#455a64"></rect><rect x="568.52" y="292.96" width="100.98" height="2.76" style="fill:#455a64"></rect><rect x="568.52" y="339.05" width="100.98" height="2.76" style="fill:#455a64"></rect><rect x="568.52" y="385.15" width="100.98" height="2.76" style="fill:#455a64"></rect><rect x="600.42" y="95.62" width="2.15" height="317.93" style="fill:#455a64"></rect><rect x="634.02" y="95.62" width="2.15" height="317.93" style="fill:#455a64"></rect></g><g id="character-2--inject-36"><path d="M511.61,388.74l18.18-16.82a12,12,0,0,0,.41-17.18c-3.58-3.65-5-6.66-5.4-6.86l-9.86,11.25,4.47,5.85L506.7,379.76s-2.18,1.21-2.52,3.07,7.66,16.72,7.66,16.72,1.74-.46,1.51-1.74S511.61,388.74,511.61,388.74Z" style="fill:#ffbe9d"></path><path d="M504.54,415.71l1-45.18-15.22,1.52c-.1,1.14,4.31,37.32,5.35,45.8l17.52,0C511.12,415.79,504.54,415.71,504.54,415.71Z" style="fill:#ffbe9d"></path><path d="M504.83,415.71c0,.16-1,.22-2.13.42s-2.08.52-2.14.37a5,5,0,0,1,4.27-.79Z" style="fill:#eb996e"></path><path d="M504.79,415.71a8.51,8.51,0,0,1-.1-1.56c0-1-.05-2.46-.05-4.25,0-3.59,0-8.55.14-14s.21-10.34.29-14l.11-4.25a7.85,7.85,0,0,1,.11-1.56,10.9,10.9,0,0,1,.09,1.56c0,1,.05,2.46.06,4.25,0,3.59,0,8.55-.14,14s-.22,10.34-.3,14c0,1.72-.08,3.15-.11,4.25A8.51,8.51,0,0,1,504.79,415.71Z" style="fill:#eb996e"></path><path d="M482.05,342.06c.72-.83,1.61,12.05,1.63,14.95a151.26,151.26,0,0,0,1.54,19L508,373.49V354.75l7.87,9.9,13.93-12.94-8.57-10.54-1.3-5.4-28.29,2.91Z" style="fill:#263238"></path><path d="M520,339.51c0,.09-.92.34-2.33,1a17.94,17.94,0,0,0-5,3.41,18.2,18.2,0,0,0-3.54,4.89c-.68,1.4-.95,2.34-1,2.31a7.24,7.24,0,0,1,.71-2.46,15.77,15.77,0,0,1,3.51-5.11,16,16,0,0,1,5.19-3.38A7.45,7.45,0,0,1,520,339.51Z" style="fill:#455a64"></path><path d="M504.88,354.33a20,20,0,0,1-9.51-3.21c.07-.13,2.1.84,4.72,1.71S504.91,354.18,504.88,354.33Z" style="fill:#455a64"></path><path d="M490.1,345.1a8.35,8.35,0,0,1-5,5.55c-.08-.14,1.41-1,2.79-2.53S490,345,490.1,345.1Z" style="fill:#455a64"></path><path d="M512.75,288.25l-3.86-1.42-13.89.79-1.18-1.39c-.53.16-11.49,3.77-12.63,15.47-.51,5.28-.05,35.66-.05,35.66s-3.55,5.1,6.67,6.7,15.21,3,20.9-1.28,10-6.59,12.27-7c.9-.14-1.15-6.36-1.49-14.28-.27-6.36,1.26-13.68,1.37-19.36A15.48,15.48,0,0,0,512.75,288.25Z" style="fill:#63B4C1"></path><path d="M510.45,286.56v-.13c5.12-.66,7.48-5.6,7.82-11.51a73.64,73.64,0,0,0,.1-10.18,53.23,53.23,0,0,0-1.72-11.86,14.48,14.48,0,0,0-12-4.62c-7.84.58-11.89,11.1-11.89,11.1s.05,16,.52,19.22a26.08,26.08,0,0,1,.39,4.39l.18,3.95a8.31,8.31,0,0,0,8.3,7.92h0A8.29,8.29,0,0,0,510.45,286.56Z" style="fill:#ffbe9d"></path><path d="M493.15,269.41c-.14-.06-5.5-1.68-5.37,3.81s5.62,4.22,5.62,4.06S493.15,269.41,493.15,269.41Z" style="fill:#ffbe9d"></path><path d="M491.68,275.25s-.1.07-.26.14a.92.92,0,0,1-.71,0,2.38,2.38,0,0,1-1.15-2.1,3.16,3.16,0,0,1,.24-1.37,1.12,1.12,0,0,1,.7-.76.49.49,0,0,1,.57.25c.08.15,0,.26.07.27s.12-.09.07-.32a.66.66,0,0,0-.22-.34.74.74,0,0,0-.54-.12,1.34,1.34,0,0,0-1,.87,3.22,3.22,0,0,0-.3,1.54,2.5,2.5,0,0,0,1.45,2.34,1,1,0,0,0,.87-.17C491.67,275.38,491.7,275.26,491.68,275.25Z" style="fill:#eb996e"></path><path d="M514.65,269.32a1.19,1.19,0,0,1-1.16,1.2,1.15,1.15,0,0,1-1.23-1.09,1.21,1.21,0,0,1,1.16-1.2A1.15,1.15,0,0,1,514.65,269.32Z" style="fill:#263238"></path><path d="M515,267.56c-.15.15-1.05-.52-2.33-.53s-2.23.63-2.37.47.08-.35.5-.64a3.2,3.2,0,0,1,1.9-.57,3.14,3.14,0,0,1,1.85.61C514.92,267.21,515.05,267.49,515,267.56Z" style="fill:#263238"></path><path d="M503.07,269.62a1.21,1.21,0,0,1-1.16,1.2,1.15,1.15,0,0,1-1.23-1.09,1.19,1.19,0,0,1,1.16-1.2A1.15,1.15,0,0,1,503.07,269.62Z" style="fill:#263238"></path><path d="M503.08,268.21c-.15.15-1.05-.52-2.33-.53s-2.23.63-2.37.47.08-.35.5-.65a3.35,3.35,0,0,1,1.9-.57,3.08,3.08,0,0,1,1.85.62C503,267.86,503.16,268.14,503.08,268.21Z" style="fill:#263238"></path><path d="M503.14,264.63c-.16.31-1.21.13-2.42.23s-2.2.36-2.44.08,0-.42.43-.71a3.68,3.68,0,0,1,1.86-.6,4,4,0,0,1,2,.36C503,264.22,503.21,264.49,503.14,264.63Z" style="fill:#263238"></path><path d="M515.45,264.12c-.2.32-1.17.05-2.34.05s-2.16.22-2.34-.1c-.09-.15.08-.44.5-.71a3.54,3.54,0,0,1,1.85-.49,3.46,3.46,0,0,1,1.84.53C515.37,263.68,515.54,264,515.45,264.12Z" style="fill:#263238"></path><path d="M505.72,277.58c0,.07-.15.21-.5.25a1.76,1.76,0,0,1-1.27-.35,1.84,1.84,0,0,1-.69-1.13c-.05-.34,0-.55.12-.55s.29.73.93,1.2S505.68,277.42,505.72,277.58Z" style="fill:#263238"></path><path d="M510.45,286.43s-6.57.11-8.13-1c0,0,1,3.16,8,2.83Z" style="fill:#eb996e"></path><path d="M494.13,253.89s-.11-.36-.4-.87a3.5,3.5,0,0,0-1.66-1.48,3.58,3.58,0,0,0-2.23-.14c-.57.15-.88.36-.89.32s.06-.07.2-.16a3.12,3.12,0,0,1,.65-.3,3.46,3.46,0,0,1,2.34.09,3.42,3.42,0,0,1,1.71,1.61,3,3,0,0,1,.25.67A.86.86,0,0,1,494.13,253.89Z" style="fill:#263238"></path><path d="M494.82,253.73s-.09,0-.24-.17A4,4,0,0,1,494,253a4.44,4.44,0,0,1-.27-5,4.19,4.19,0,0,1,.48-.64c.13-.13.21-.2.22-.19s-.27.32-.58.9a4.86,4.86,0,0,0-.55,2.45,4.75,4.75,0,0,0,.82,2.38C494.53,253.44,494.85,253.7,494.82,253.73Z" style="fill:#263238"></path><path d="M507.84,270.81c.07,0,.28.21.55.64.13.22.28.48.44.77l.25.47a2.45,2.45,0,0,1,.25.58,1,1,0,0,1-.11.77,1.14,1.14,0,0,1-.55.42,1.21,1.21,0,0,1-.59.06,1.24,1.24,0,0,1-.46-.14c-.49-.26-.68-.52-.65-.58s.35.07.8.19a1,1,0,0,0,.69,0,.57.57,0,0,0,.26-.22.43.43,0,0,0,0-.32,2.37,2.37,0,0,0-.19-.46l-.22-.48c-.13-.31-.24-.59-.33-.83C507.84,271.16,507.77,270.85,507.84,270.81Z" style="fill:#263238"></path><path d="M499.53,274c-.06,0-.08-.14,0-.29s.1-.26.15-.25.08.14.05.29S499.58,274,499.53,274Z" style="fill:#eb996e"></path><path d="M501.82,273.48c-.05,0-.12,0-.15-.13s0-.17,0-.19.12,0,.15.13S501.87,273.46,501.82,273.48Z" style="fill:#eb996e"></path><path d="M500.66,274.87c-.06,0-.11-.11-.13-.26s0-.27.07-.28.11.11.13.26S500.71,274.86,500.66,274.87Z" style="fill:#eb996e"></path><path d="M497.76,274.6c-.05,0-.06-.15,0-.3s.12-.25.17-.23.06.14,0,.29S497.82,274.62,497.76,274.6Z" style="fill:#eb996e"></path><path d="M513,273.43s-.11-.1-.12-.23,0-.25.07-.26.11.1.13.23S513.09,273.42,513,273.43Z" style="fill:#eb996e"></path><path d="M515.18,273.37c-.06,0-.1-.12-.1-.27s0-.26.1-.26.1.12.1.26S515.23,273.37,515.18,273.37Z" style="fill:#eb996e"></path><path d="M517,273.26c-.06,0-.13-.1-.16-.25s0-.27.05-.28.12.1.15.25S517,273.25,517,273.26Z" style="fill:#eb996e"></path><path d="M514.16,275.19s-.06-.15,0-.3.12-.25.17-.24.06.15,0,.3S514.22,275.2,514.16,275.19Z" style="fill:#eb996e"></path><path d="M516.18,274.92s-.11-.08-.12-.2,0-.22.07-.23.11.09.13.21S516.24,274.92,516.18,274.92Z" style="fill:#eb996e"></path><path d="M489.08,269.49a7.93,7.93,0,0,1,.12-5.94,2.45,2.45,0,0,1-1.53-4.57,2.84,2.84,0,0,1,2.2-5.05,4.07,4.07,0,0,1,5.78-5.4,3.53,3.53,0,0,1,6-2.35,5.34,5.34,0,0,1,9.8.25,4,4,0,0,1,6.73,1.37,3.45,3.45,0,0,1,4,5.51,2.7,2.7,0,0,1-2,4.83c1.08,1.16.49,3.26-.89,4a4.48,4.48,0,0,1-4.51-.42,13.12,13.12,0,0,1-3.24-3.44,3,3,0,0,1-6-.3,4.25,4.25,0,0,1-8,.6c.3.78-.43,1.57-1.18,1.95a4.74,4.74,0,0,0-2.08,1.32,3.67,3.67,0,0,0-.1,2.6,16.5,16.5,0,0,1-.08,6.38,2.48,2.48,0,0,1-1.15,1.9,1.81,1.81,0,0,1-2.12-.79,4.89,4.89,0,0,1-.63-2.36" style="fill:#263238"></path><path d="M518.42,272.12c1.53-2.43,1.42-5.52,1.26-8.39l-.36-6.3a4.26,4.26,0,0,0-.24-1.38,1.42,1.42,0,0,0-1-.91.88.88,0,0,0-1,.7" style="fill:#263238"></path><path d="M503.62,254.09s.11.24.09.7a3.38,3.38,0,0,1-.63,1.8,3.43,3.43,0,0,1-2.44,1.49,3.8,3.8,0,0,1-3.24-1.28,3.46,3.46,0,0,1-.43-.62l.49-.11a3.39,3.39,0,0,1-1.86,2.67,3.05,3.05,0,0,1-2.63,0,3,3,0,0,1-1.33-1.14c-.22-.35-.26-.58-.23-.59a4.09,4.09,0,0,0,1.7,1.41,2.7,2.7,0,0,0,2.28-.11,2.9,2.9,0,0,0,1.55-2.29l.07-.83.42.73a2.92,2.92,0,0,0,.36.53,3.44,3.44,0,0,0,2.8,1.15,3.17,3.17,0,0,0,2.19-1.24A4.56,4.56,0,0,0,503.62,254.09Z" style="fill:#455a64"></path><path d="M518.58,254.46a1.4,1.4,0,0,1,.16.73,3.51,3.51,0,0,1-3.2,3.51,3.73,3.73,0,0,1-3.25-1.78,3.29,3.29,0,0,1-.48-1.33l.51,0a3.26,3.26,0,0,1-2.26,2.34,3,3,0,0,1-3.62-1.85c-.14-.39-.13-.62-.1-.62a3.8,3.8,0,0,0,1.35,1.71,2.65,2.65,0,0,0,2.24.32,2.82,2.82,0,0,0,1.89-2l.32-1.46.19,1.48a2.66,2.66,0,0,0,.4,1.12,3.31,3.31,0,0,0,2.79,1.57,3.1,3.1,0,0,0,2.33-1.28,3.64,3.64,0,0,0,.69-1.75C518.58,254.73,518.53,254.47,518.58,254.46Z" style="fill:#455a64"></path><path d="M518.7,249.5a5,5,0,0,0-1.41-1.35,2.93,2.93,0,0,0-2-.32,3.08,3.08,0,0,0-2,1.41,2.87,2.87,0,0,0-.26.6l-.24.74-.26-.73A2.35,2.35,0,0,0,511,248.4a2.27,2.27,0,0,0-1.75.21c-.93.54-1.11,1.28-1.19,1.23s0-.82,1-1.53a2.55,2.55,0,0,1,2.05-.36,2.79,2.79,0,0,1,1.92,1.73h-.49a3.05,3.05,0,0,1,.32-.72,3.4,3.4,0,0,1,2.33-1.61,3.15,3.15,0,0,1,2.26.48C518.61,248.59,518.75,249.52,518.7,249.5Z" style="fill:#455a64"></path><path d="M497.52,252.17c0,.07-.41-.09-1-.34a6.29,6.29,0,0,0-2.29-.63,2.57,2.57,0,0,0-2.05.8c-.4.44-.46.85-.54.83s-.15-.46.24-1.05a2.7,2.7,0,0,1,2.37-1.1,5.07,5.07,0,0,1,2.44.82C497.25,251.85,497.55,252.11,497.52,252.17Z" style="fill:#455a64"></path><path d="M496,306.19a11,11,0,0,1-.44-2.94,21.6,21.6,0,0,0-1.25-6.9,6.9,6.9,0,0,0-2.29-3,5.38,5.38,0,0,0-2.89-.95,5,5,0,0,0-2.71.81s.15-.26.59-.55a4.1,4.1,0,0,1,2.12-.62,5.49,5.49,0,0,1,3.16.91,7.24,7.24,0,0,1,2.5,3.14,19.26,19.26,0,0,1,1.14,7.09C496,305.05,496.1,306.17,496,306.19Z" style="fill:#263238"></path><path d="M513.16,326.25a8.64,8.64,0,0,1-1.47,2.17A23.38,23.38,0,0,1,507,332.7a23.62,23.62,0,0,1-5.64,2.87,9.08,9.08,0,0,1-2.54.63,39.21,39.21,0,0,0,7.88-3.93A38,38,0,0,0,513.16,326.25Z" style="fill:#263238"></path><path d="M498.64,316.76a4.6,4.6,0,0,1-1.32-.66,6.62,6.62,0,0,1-2.44-3.34,6,6,0,0,1-.24-3,6.33,6.33,0,0,1,1.56-3.15,6.77,6.77,0,0,1,3.43-2.06,4.19,4.19,0,0,1,2.22,0,2.65,2.65,0,0,1,1,.59,1.57,1.57,0,0,1,.51,1.17l-.44-.08a6.26,6.26,0,0,1,2.63-3.27,6.1,6.1,0,0,1,8.29,1.93,4.75,4.75,0,0,1,.61,2.43,2.89,2.89,0,0,1-1.18,2.29l-.1-.47a5.26,5.26,0,0,1,.53.15,4.35,4.35,0,0,1-1.91,8.44l.23-.39a4.37,4.37,0,0,1-6.14,6.1l.31-.1a4.12,4.12,0,0,1-5.33,2.42,4.05,4.05,0,0,1-2.55-3.85,4.14,4.14,0,0,1,1.24-2.74,2.5,2.5,0,0,1,.87-.6,8.87,8.87,0,0,0-.79.69,4.07,4.07,0,0,0-1.09,2.66,3.8,3.8,0,0,0,2.44,3.53,3.5,3.5,0,0,0,2.73-.05,3.84,3.84,0,0,0,2.1-2.19l.09-.26.22.16a4.09,4.09,0,0,0,4.9-.17,4,4,0,0,0,.6-5.31l-.34-.47.57.08a4,4,0,0,0,4.21-2.83,4,4,0,0,0-2.53-4.63c-.15-.06-.31-.08-.46-.13l-.55-.16.45-.31a2.35,2.35,0,0,0,1-1.88,4.22,4.22,0,0,0-.54-2.15,5.59,5.59,0,0,0-7.59-1.77,5.78,5.78,0,0,0-2.45,3l-.5,1.42.05-1.5c0-.65-.58-1.14-1.22-1.33a3.74,3.74,0,0,0-2,0,6.34,6.34,0,0,0-3.25,1.9,6.15,6.15,0,0,0-1.52,3,5.93,5.93,0,0,0,.17,2.84,6.62,6.62,0,0,0,2.28,3.3C498.17,316.55,498.66,316.72,498.64,316.76Z" style="fill:#fafafa"></path><g style="opacity:0.30000000000000004"><path d="M481.72,315.3a23.8,23.8,0,0,0,1.12,7,8.22,8.22,0,0,0,4.22,5.52,8,8,0,0,0,5.86,0,20.4,20.4,0,0,0,5.19-2.95,73.38,73.38,0,0,0,17.71-17.27c.37-.53.75-1.22.44-1.8a1.24,1.24,0,0,0-1.43-.49,3.6,3.6,0,0,0-1.36.87q-6.59,5.77-12.87,11.87a27,27,0,0,1-5.55,4.52,7.62,7.62,0,0,1-11-2.7,22.21,22.21,0,0,1-2.3-4.63"></path></g><path d="M481.59,311.82s-.46,10.84,4.84,12.88,7.63-.27,9.44-1.9,20.8-18.14,20.8-18.14L516,284.61a5.72,5.72,0,0,0-1.84,2.76A101,101,0,0,0,511,298.86c-1.51,1.49-20.14,13-20.14,13Z" style="fill:#ffbe9d"></path><path d="M526.74,306.65l-6.21-9.34c-.71-5.14-1.3-12.49-3.86-12.7v20.44l4,11.24s.24.3.65.76a3.54,3.54,0,0,0,1.1.76c4.09,2,8.37-2.47,6.47-6.59Z" style="fill:#ffbe9d"></path><path d="M512,300.39c-.12.08-.44-.17-.73-.57s-.44-.79-.32-.87.45.17.74.57S512.08,300.31,512,300.39Z" style="fill:#eb996e"></path><path d="M516.81,284.73a96.15,96.15,0,0,1,.26,9.93,96.31,96.31,0,0,1-.26,9.93,93,93,0,0,1-.26-9.93A92.88,92.88,0,0,1,516.81,284.73Z" style="fill:#eb996e"></path><path d="M520.65,297.17c.13.05,0,.81-.34,1.7s-.68,1.57-.82,1.52,0-.81.33-1.7S520.51,297.12,520.65,297.17Z" style="fill:#eb996e"></path><path d="M510.58,299.47c.07.12-5.34,3.76-12.09,8.13s-12.28,7.82-12.36,7.7,5.33-3.76,12.08-8.13S510.5,299.35,510.58,299.47Z" style="fill:#eb996e"></path><g style="opacity:0.30000000000000004"><path d="M500.65,335.45a5,5,0,0,1-2.24.4,2,2,0,0,1-1.71-1.34,2,2,0,0,1,1.09-2.1,7.6,7.6,0,0,1,2.41-.74,18,18,0,0,0,8.14-4.16,4.23,4.23,0,0,1,1.61-1.09,1.26,1.26,0,0,1,1.59.74c.14.6-.35,1.16-.81,1.58a46.8,46.8,0,0,1-11.17,7.62"></path></g></g><g id="character-3--inject-36"><path d="M596.33,413.32a43.8,43.8,0,0,1-2.45-12.51L584.15,403a8.47,8.47,0,0,1-5.19,9.83c-2.07.72-6.42,1.3-6.42,5.06h19.2c1.53,0,3.62-.05,4.62-1.21C597.11,415.77,596.72,414.43,596.33,413.32Z" style="fill:#ffbe9d"></path><path d="M548.48,268.63s.15,22.32,6.65,44.21S582.83,407,582.83,407l12.41.32-10.48-117-2.06-23.1Z" style="fill:#455a64"></path><path d="M610.19,264.26S656,293.64,658,301c2.64,9.67-.71,20.7-8.29,20.51s-60.11-13.84-60.11-13.84l.29-13.47,6.6-.23-12.22-6.83-3.34-19.48Z" style="fill:#455a64"></path><path d="M637.24,313.51a3.78,3.78,0,0,1-.7-.15,8.91,8.91,0,0,1-1.86-.78,10.7,10.7,0,0,1-4.64-5.52l.12.13c-3.57-1.57-8-3.56-12.84-5.56-6.09-2.54-11.76-4.44-15.86-5.83l-4.85-1.65-1.31-.48a2.49,2.49,0,0,1-.45-.19,1.43,1.43,0,0,1,.48.09l1.34.38c1.17.34,2.84.85,4.91,1.5,4.13,1.3,9.83,3.15,15.94,5.7,4.85,2,9.26,4,12.81,5.65l.08,0,0,.09a10.71,10.71,0,0,0,4.36,5.44A22.72,22.72,0,0,0,637.24,313.51Z" style="fill:#263238"></path><path d="M589.73,294.86c-3.82-1.1-7.65-2.78-11-2.69-1.72.05-3.12.17-4.37,2-1.08,1.55-.78,4.92,0,6.64,2.34,5,3.14,7.29,2.64,11.74s-.69,9.34,2.23,13a5.39,5.39,0,0,0,2.5,1.87,3,3,0,0,0,3-.61c.77-.85.61-2.08.45-3.18a25.55,25.55,0,0,1,.1-9.86c.77-3.23,1.6-4.21,4.52-6.2" style="fill:#ffbe9d"></path><path d="M589.27,280.49a30,30,0,0,1-2.87,4.72,29,29,0,0,1-3.31,4.42,29.31,29.31,0,0,1,2.88-4.71A29,29,0,0,1,589.27,280.49Z" style="fill:#263238"></path><path d="M573.82,173.55,562,177.63l-3.8,26.8,2.21,29.38s-6.83,3.16-5.62,6.43,1.82,4.79,1.82,4.79L556,243.5s-7.46,15.45-7.52,26.23c22.21,4.17,42.9,3.12,61.71-4.36l-9.79-30.82,3.11-29-1.21-27.93-10.41-3Z" style="fill:#63B4C1"></path><path d="M600.13,243.83a10.71,10.71,0,0,1-1.61.61c-.52.19-1.17.41-1.93.61s-1.61.49-2.59.7a61.74,61.74,0,0,1-6.86,1.25,71,71,0,0,1-8.54.47,68.77,68.77,0,0,1-8.52-.7,60.18,60.18,0,0,1-6.83-1.43c-1-.23-1.82-.53-2.57-.76s-1.4-.46-1.91-.66a12.41,12.41,0,0,1-1.6-.65,9.42,9.42,0,0,1,1.66.46c.53.17,1.17.37,1.93.57s1.61.47,2.58.68a68.4,68.4,0,0,0,6.81,1.32,77,77,0,0,0,8.46.65,74.68,74.68,0,0,0,8.47-.43c2.59-.31,4.91-.7,6.84-1.13,1-.19,1.83-.43,2.6-.62s1.41-.36,1.94-.52A12.34,12.34,0,0,1,600.13,243.83Z" style="fill:#263238"></path><path d="M596.79,237.44a8.5,8.5,0,0,1-1.37.5,38.65,38.65,0,0,1-3.82,1,50.32,50.32,0,0,1-5.8.92,57.28,57.28,0,0,1-7.19.23,60.36,60.36,0,0,1-7.16-.75,54.88,54.88,0,0,1-5.71-1.34c-1.6-.48-2.88-.93-3.74-1.29a8.45,8.45,0,0,1-1.33-.59,6.83,6.83,0,0,1,1.39.4c.88.3,2.17.69,3.78,1.12a57.47,57.47,0,0,0,5.69,1.22,64.09,64.09,0,0,0,7.1.71,62.77,62.77,0,0,0,7.12-.19,57.77,57.77,0,0,0,5.78-.8c1.63-.31,2.94-.6,3.84-.84A7.72,7.72,0,0,1,596.79,237.44Z" style="fill:#263238"></path><g style="opacity:0.2"><path d="M586,239.55a7.79,7.79,0,0,0,4.29-2.54c1.06-1.31,1.21-3.5-.13-4.53a3.35,3.35,0,0,0-3.11-.3,13.93,13.93,0,0,0-2.84,1.59A21.88,21.88,0,0,1,572,237.08c-2.54-.08-5.11-.6-7.59-.07v.41S576.82,241.82,586,239.55Z"></path></g><path d="M603.21,195s-.43-.48-1.29-1.27a16.55,16.55,0,0,0-4-2.75,17.14,17.14,0,0,0-7-1.7,16.09,16.09,0,0,0-4.24.5,33,33,0,0,0-4.38,1.51c-2.94,1.2-5.85,2.39-8.69,2.51a15,15,0,0,1-7.24-1.5,13.79,13.79,0,0,1-4-2.92,9.39,9.39,0,0,1-.86-1.05,1.58,1.58,0,0,1-.26-.4s.43.49,1.26,1.3a15,15,0,0,0,11.11,4.09c2.74-.13,5.58-1.31,8.53-2.51a33.84,33.84,0,0,1,4.44-1.53,16.29,16.29,0,0,1,4.38-.48,17,17,0,0,1,7.16,1.85,15.34,15.34,0,0,1,4,2.94,11.06,11.06,0,0,1,.89,1C603.14,194.85,603.23,195,603.21,195Z" style="fill:#fafafa"></path><path d="M605.33,134.21a5.61,5.61,0,0,0-1.18-6.58,9.15,9.15,0,0,0-6.6-2.33,27.11,27.11,0,0,0-7,1.33A7.65,7.65,0,0,0,577,129a4.86,4.86,0,0,0-6.62,5.48l10.06,5.28,8.61,22.08a9.37,9.37,0,0,0,15.44-10.33,8.34,8.34,0,0,0,1.93-1.77,8.23,8.23,0,0,0,4.48-4.48A8.66,8.66,0,0,0,605.33,134.21Z" style="fill:#263238"></path><path d="M592.09,175.68c-.17-3.42-.3-5.76-.3-5.73s6.62-1.52,7.46-10.33c.43-4.37-.23-11.47-1-17.25-.65-5.21-4.51-11.42-9.69-10.54l-16,5.11c-1.57.27-2,1.64-1.91,3.23l-.09.75,2.3,24.92.88,11.11a9.19,9.19,0,0,0,9.14,8.38h0A9.18,9.18,0,0,0,592.09,175.68Z" style="fill:#ffbe9d"></path><path d="M595.27,149.19a1.12,1.12,0,0,1-1,1.19,1.08,1.08,0,0,1-1.22-.94,1.12,1.12,0,0,1,1-1.19A1.08,1.08,0,0,1,595.27,149.19Z" style="fill:#263238"></path><path d="M597,146.4c-.13.15-1-.42-2.22-.34s-2.05.73-2.19.59.06-.33.43-.64a3.06,3.06,0,0,1,1.74-.65,2.94,2.94,0,0,1,1.77.45C596.87,146.07,597,146.33,597,146.4Z" style="fill:#263238"></path><path d="M584.1,150.14a1.13,1.13,0,0,1-1,1.2,1.08,1.08,0,0,1-1.22-.94,1.12,1.12,0,0,1,1-1.19A1.07,1.07,0,0,1,584.1,150.14Z" style="fill:#263238"></path><path d="M585.26,147.52c-.13.15-1-.43-2.22-.35s-2,.74-2.19.6.06-.34.43-.64a3.14,3.14,0,0,1,1.74-.66,3,3,0,0,1,1.77.46C585.18,147.19,585.32,147.45,585.26,147.52Z" style="fill:#263238"></path><path d="M590.09,155.76a8,8,0,0,1,1.93-.47c.3,0,.59-.13.63-.34a1.56,1.56,0,0,0-.26-.9l-1-2.28a40.4,40.4,0,0,1-2.42-6,41,41,0,0,1,2.89,5.79c.36.8.7,1.57,1,2.3a1.74,1.74,0,0,1,.23,1.19.74.74,0,0,1-.48.48,1.81,1.81,0,0,1-.51.11A7.61,7.61,0,0,1,590.09,155.76Z" style="fill:#263238"></path><path d="M591.79,170a22.16,22.16,0,0,1-11.86-2.4s3.32,6,12,4.62Z" style="fill:#eb996e"></path><path d="M585.12,143.86c-.13.32-1.33.14-2.74.27s-2.58.5-2.76.2c-.08-.14.13-.45.6-.75a4.72,4.72,0,0,1,4.18-.36C584.92,143.44,585.17,143.7,585.12,143.86Z" style="fill:#263238"></path><path d="M596.56,143.33c-.24.29-1.23.07-2.41.13s-2.17.31-2.42,0,0-.41.46-.7a3.84,3.84,0,0,1,1.93-.57,3.73,3.73,0,0,1,2,.43C596.51,142.92,596.66,143.19,596.56,143.33Z" style="fill:#263238"></path><path d="M577.09,131.86a6,6,0,0,0,7.39,5.47c1.32-.32,2.74-1.08,3.93-.44s1.42,2.5,2.55,3.37c1.61,1.24,4-.16,6,.3,1.53.36,2.56,1.75,3.63,2.9s2.64,2.21,4.12,1.68a18.05,18.05,0,0,0-.84-4,6,6,0,0,0-2.47-3.14c-.65-.37-1.39-.57-2-1-1.31-.94-1.7-2.68-2.56-4a6.54,6.54,0,0,0-5.17-3c-1.73-.07-3.46.54-5.16.22-1.25-.24-2.38-1-3.65-1.14-2.46-.32-4.63,1.57-6.29,3.41" style="fill:#263238"></path><path d="M585.1,134.86c-1.11-.25-3.39-.82-4-1.73a6.69,6.69,0,0,0-6-3,5.53,5.53,0,0,0-4.71,4.65,8,8,0,0,0-6.55,4.8,9.19,9.19,0,0,0,.75,8.53,16.42,16.42,0,0,1,1,2,13.88,13.88,0,0,0-1.71,1.91c-2.37,3.71,2.27,6,2.27,6-.37,2.67,2.09,3,3.67,3.24s1.84,4.56,3.09,4.58l.65-13.19a1.6,1.6,0,0,0,.56.19c3,.49,3-5.25,2.27-6.85a16.86,16.86,0,0,0,2.75-3.26,12.31,12.31,0,0,0,1-6C581.18,136.72,585.59,135,585.1,134.86Z" style="fill:#263238"></path><path d="M573.89,153.41a2.55,2.55,0,0,0-3.85-1.95c-.85.57-1.47,1.63-1.27,3.6.53,5.24,5.68,3.62,5.67,3.47S574.12,155.57,573.89,153.41Z" style="fill:#ffbe9d"></path><path d="M572.64,156.71s-.08.07-.23.16a.91.91,0,0,1-.68.08,2.26,2.26,0,0,1-1.25-1.92,3.06,3.06,0,0,1,.12-1.33,1.07,1.07,0,0,1,.62-.77.46.46,0,0,1,.56.2.8.8,0,0,1,.09.25s.11-.1,0-.31a.56.56,0,0,0-.24-.31.67.67,0,0,0-.51-.08,1.27,1.27,0,0,0-.87.91,3,3,0,0,0-.17,1.49,2.4,2.4,0,0,0,1.56,2.13,1,1,0,0,0,.82-.23C572.64,156.84,572.66,156.72,572.64,156.71Z" style="fill:#eb996e"></path><path d="M602,150.31a14.41,14.41,0,0,0,1.27-1,7.49,7.49,0,0,0,2.16-3.69,7.38,7.38,0,0,0,.14-2.95,6.31,6.31,0,0,0-1.39-3.05,7.43,7.43,0,0,0-7-2.46c-.24,0-.48.12-.72.18l-.67.26-.33.13,0-.34a2.56,2.56,0,0,0-.39-1.75,4.05,4.05,0,0,0-1.3-1.24,5.37,5.37,0,0,0-3.33-.74c-2.24.17-4.22.89-6,.84a5.62,5.62,0,0,1-3.8-1.36,3.47,3.47,0,0,1-.65-.9q-.15-.36-.12-.36a4.41,4.41,0,0,0,.88,1.15,5.63,5.63,0,0,0,3.7,1.19,13.52,13.52,0,0,0,2.74-.38,24.05,24.05,0,0,1,3.21-.55,6.86,6.86,0,0,1,1.8.08,5.35,5.35,0,0,1,1.77.69,4.44,4.44,0,0,1,1.43,1.37,3,3,0,0,1,.46,2l-.29-.22.71-.28c.26-.06.51-.15.77-.2a7.83,7.83,0,0,1,7.39,2.62,6.7,6.7,0,0,1,1.43,3.25,7.54,7.54,0,0,1-.2,3.07,7.34,7.34,0,0,1-2.33,3.74,5.33,5.33,0,0,1-1,.69C602.16,150.27,602,150.33,602,150.31Z" style="fill:#455a64"></path><path d="M603.59,132.42a5.2,5.2,0,0,0-1.54-.8,4.44,4.44,0,0,0-2-.1,3.82,3.82,0,0,0-2.2,1.15l-.23.25-.07-.33a6,6,0,0,0-4.27-4.26,7.72,7.72,0,0,0-4.8.66,20.58,20.58,0,0,1-3.92,1.35,5.75,5.75,0,0,1-2.81-.08,2.89,2.89,0,0,1-.71-.31q-.23-.13-.21-.15s.33.15,1,.31a6.22,6.22,0,0,0,2.71-.05,22.91,22.91,0,0,0,3.84-1.42,12.32,12.32,0,0,1,2.36-.76,6.08,6.08,0,0,1,2.68.05,6.26,6.26,0,0,1,4.51,4.58l-.3-.08a4.07,4.07,0,0,1,2.42-1.2,4.45,4.45,0,0,1,2.06.19,3.92,3.92,0,0,1,1.16.65C603.5,132.28,603.61,132.41,603.59,132.42Z" style="fill:#455a64"></path><path d="M589.09,158.23a1.68,1.68,0,0,0-1.32-.6,2,2,0,0,0-1.46.77s0,0,0,0l-.06,0h0a1.05,1.05,0,0,0-.23.57,1.45,1.45,0,0,0,.66,1.19,1.84,1.84,0,0,0,2.1,0A1.48,1.48,0,0,0,589.09,158.23Z" style="fill:#63B4C1"></path><path d="M586.12,157.28c.06,0,.13.27.34.66a2.76,2.76,0,0,0,2.77,1.51c.44,0,.71-.13.74-.06s-.2.26-.68.38a2.62,2.62,0,0,1-1.9-.24,2.58,2.58,0,0,1-1.23-1.47C586,157.59,586.06,157.28,586.12,157.28Z" style="fill:#263238"></path><path d="M573.17,159.14s.16.43-.22,1a1.6,1.6,0,0,1-1,.63,1.59,1.59,0,0,1-1.36-.36,1.61,1.61,0,0,1-.57-1.29,1.59,1.59,0,0,1,.48-1c.48-.47.94-.41.93-.37s-.37.13-.72.56a1.43,1.43,0,0,0-.31.85,1.32,1.32,0,0,0,1.48,1.27,1.45,1.45,0,0,0,.79-.44C573.1,159.53,573.1,159.13,573.17,159.14Z" style="fill:#63B4C1"></path><path d="M570.56,158.45s-.06.27-.43.38a1,1,0,0,1-.66,0,1,1,0,0,1-.52-1.43,1,1,0,0,1,.48-.45c.36-.15.59,0,.57,0s-.2.08-.43.24a.76.76,0,0,0,.51,1.38C570.35,158.53,570.52,158.41,570.56,158.45Z" style="fill:#63B4C1"></path><path d="M562,177.6A19.38,19.38,0,0,0,550.05,188c-3,6-12.11,30.6-13.95,36.15a12.19,12.19,0,0,0-.62,3.83c0,2.33.43,6,3.47,6.77,11,2.69,37.36-12.48,37.36-12.48s5.34-.18,6-3.82L583.61,195s-1.23-.67-1.59.29-5.92,16-5.92,16-1.1,1.79-2.37,1.7-20.05,2.65-20.05,2.65l4.7-10C558.39,205.41,562,177.6,562,177.6Z" style="fill:#ffbe9d"></path><path d="M602.45,177.34a19.39,19.39,0,0,1,10.93,11.41C615.8,195,622.65,220.32,624,226a12,12,0,0,1,.27,3.87c-.21,2.32-1,6-4.07,6.42C609,238,587.8,223.45,587.8,223.45s-5.3-.67-5.67-4.36l.89-23.47s1.29-.56,1.56.43S589,212.57,589,212.57s.93,1.88,2.2,1.91,16,1.49,16,1.49l-3.76-10.4C603.49,205.36,602.45,177.34,602.45,177.34Z" style="fill:#ffbe9d"></path><path d="M553.59,215.13a22.19,22.19,0,0,0-5.41,2.89,21.23,21.23,0,0,0-4,4.65,4.5,4.5,0,0,1,.74-1.7,12.83,12.83,0,0,1,6.88-5.49A4.56,4.56,0,0,1,553.59,215.13Z" style="fill:#eb996e"></path><path d="M582.43,195.31c.14,0,.12,5.42,0,12.11s-.43,12.1-.57,12.1-.12-5.43.05-12.11S582.28,195.3,582.43,195.31Z" style="fill:#eb996e"></path><path d="M616.41,217.68c-.08.14-2.13-1-4.9-1.51a50.43,50.43,0,0,0-5.11-.49,13,13,0,0,1,10,2Z" style="fill:#eb996e"></path></g><g id="balcony-2--inject-36"><path d="M722.06,286.33H407.72a2.7,2.7,0,0,1-2.7-2.7h0a2.7,2.7,0,0,1,2.7-2.7H722.06a2.7,2.7,0,0,1,2.7,2.7h0A2.7,2.7,0,0,1,722.06,286.33Z" style="fill:#263238"></path><path d="M720.14,417.88c0-1.46-.4-50.34-1.06-131.55l.19.19-308.66.07h0l.26-.26c.3,46.14.6,90.63.86,131.54l-.25-.24,308.68.25-308.68.24h-.24v-.24c-.28-40.92-.58-85.4-.89-131.55v-.26h.28l308.66.07h.18v.19C719.88,367.54,720.13,416.43,720.14,417.88Z" style="fill:#263238"></path><path d="M428.26,417.88c-.15,0-.26-29.88-.26-66.72s.11-66.71.26-66.71.26,29.86.26,66.71S428.4,417.88,428.26,417.88Z" style="fill:#263238"></path><path d="M445.76,417.88c-.15,0-.27-29.88-.27-66.72s.12-66.71.27-66.71.26,29.86.26,66.71S445.9,417.88,445.76,417.88Z" style="fill:#263238"></path><path d="M463.25,417.88c-.14,0-.26-29.88-.26-66.72s.12-66.71.26-66.71.26,29.86.26,66.71S463.4,417.88,463.25,417.88Z" style="fill:#263238"></path><path d="M480.75,417.88c-.14,0-.26-29.88-.26-66.72s.12-66.71.26-66.71.26,29.86.26,66.71S480.89,417.88,480.75,417.88Z" style="fill:#263238"></path><path d="M498.25,417.88c-.14,0-.26-29.88-.26-66.72s.12-66.71.26-66.71.26,29.86.26,66.71S498.39,417.88,498.25,417.88Z" style="fill:#263238"></path><path d="M515.75,417.88c-.15,0-.26-29.88-.26-66.72s.11-66.71.26-66.71.26,29.86.26,66.71S515.89,417.88,515.75,417.88Z" style="fill:#263238"></path><path d="M533.25,417.88c-.15,0-.27-29.88-.27-66.72s.12-66.71.27-66.71.26,29.86.26,66.71S533.39,417.88,533.25,417.88Z" style="fill:#263238"></path><path d="M550.74,417.88c-.14,0-.26-29.88-.26-66.72s.12-66.71.26-66.71.26,29.86.26,66.71S550.89,417.88,550.74,417.88Z" style="fill:#263238"></path><path d="M568.24,417.88c-.14,0-.26-29.88-.26-66.72s.12-66.71.26-66.71.26,29.86.26,66.71S568.39,417.88,568.24,417.88Z" style="fill:#263238"></path><path d="M585.74,417.88c-.14,0-.26-29.88-.26-66.72s.12-66.71.26-66.71.26,29.86.26,66.71S585.88,417.88,585.74,417.88Z" style="fill:#263238"></path><path d="M603.24,417.88c-.15,0-.26-29.88-.26-66.72s.11-66.71.26-66.71.26,29.86.26,66.71S603.38,417.88,603.24,417.88Z" style="fill:#263238"></path><path d="M620.74,417.88c-.15,0-.26-29.88-.26-66.72s.11-66.71.26-66.71.26,29.86.26,66.71S620.88,417.88,620.74,417.88Z" style="fill:#263238"></path><path d="M638.23,417.88c-.14,0-.26-29.88-.26-66.72s.12-66.71.26-66.71.26,29.86.26,66.71S638.38,417.88,638.23,417.88Z" style="fill:#263238"></path><path d="M655.73,417.88c-.14,0-.26-29.88-.26-66.72s.12-66.71.26-66.71.26,29.86.26,66.71S655.88,417.88,655.73,417.88Z" style="fill:#263238"></path><path d="M673.23,417.88c-.14,0-.26-29.88-.26-66.72s.12-66.71.26-66.71.26,29.86.26,66.71S673.37,417.88,673.23,417.88Z" style="fill:#263238"></path><path d="M690.73,417.88c-.15,0-.26-29.88-.26-66.72s.11-66.71.26-66.71.26,29.86.26,66.71S690.87,417.88,690.73,417.88Z" style="fill:#263238"></path><path d="M708.23,417.88c-.15,0-.26-29.88-.26-66.72s.11-66.71.26-66.71.26,29.86.26,66.71S708.37,417.88,708.23,417.88Z" style="fill:#263238"></path></g><g id="window-1--inject-36"><rect x="100.22" y="298.39" width="230.81" height="14.05" style="fill:#455a64"></rect><rect x="113.34" y="90.93" width="211.31" height="209.29" style="fill:#455a64"></rect><rect x="118.68" y="97.51" width="199.39" height="199.39" style="fill:#e0e0e0"></rect><rect x="221.21" y="94.67" width="99.61" height="205.1" style="fill:#455a64"></rect><rect x="223.74" y="97.06" width="94.57" height="199.39" style="fill:#fafafa"></rect><path d="M242.38,219.59c-.1-.1,13.37-13.74,30.09-30.47s30.37-30.2,30.47-30.09-13.37,13.74-30.1,30.46S242.48,219.69,242.38,219.59Z" style="fill:#263238"></path><path d="M250.52,199.59c-.1-.1,13.38-13.74,30.1-30.46S311,138.93,311.08,139,297.71,152.77,281,169.5,250.62,199.69,250.52,199.59Z" style="fill:#263238"></path><rect x="222.1" y="146.84" width="98.72" height="2.76" style="fill:#455a64"></rect><rect x="222.1" y="196.37" width="98.72" height="2.76" style="fill:#455a64"></rect><rect x="222.1" y="245.91" width="98.72" height="2.76" style="fill:#455a64"></rect><rect x="253.29" y="94.67" width="2.11" height="201.78" style="fill:#455a64"></rect><rect x="286.13" y="94.67" width="2.11" height="201.78" style="fill:#455a64"></rect><rect x="20.65" y="94.67" width="99.61" height="205.1" style="fill:#455a64"></rect><rect x="23.17" y="97.06" width="94.57" height="199.39" style="fill:#fafafa"></rect><path d="M41.82,219.59c-.1-.1,13.37-13.74,30.09-30.47s30.37-30.2,30.47-30.09S89,172.77,72.28,189.49,41.92,219.69,41.82,219.59Z" style="fill:#263238"></path><path d="M50,199.59c-.1-.1,13.37-13.74,30.09-30.46s30.37-30.2,30.47-30.1-13.37,13.74-30.1,30.47S50.06,199.69,50,199.59Z" style="fill:#263238"></path><rect x="21.53" y="146.84" width="98.72" height="2.76" style="fill:#455a64"></rect><rect x="21.53" y="196.37" width="98.72" height="2.76" style="fill:#455a64"></rect><rect x="21.53" y="245.91" width="98.72" height="2.76" style="fill:#455a64"></rect><rect x="52.72" y="94.67" width="2.11" height="201.78" style="fill:#455a64"></rect><rect x="85.57" y="94.67" width="2.11" height="201.78" style="fill:#455a64"></rect></g><g id="character-1--inject-36"><path d="M233.88,150.21c-2.78-1.61-6.51.33-9.43-1-1.78-.8-2.84-2.61-4.28-3.92a9.8,9.8,0,0,0-8.42-2.31c-2.83.7-4.77,1.69-5.78,4.42-2-1.85-6.5.15-8.46,2.64s-2.3,5.45-2.26,8.62a42,42,0,0,0,3.39,15.89c.2.45.54,1,1,.87.32-.07.5-.41.63-.72a35.05,35.05,0,0,0,1.79-8.33,21.16,21.16,0,0,1,2.44-8.13c1.49-2.42,4.11-4.35,6.95-4.25a9,9,0,0,1,5.59,2.63c1.55,1.42,2.81,3.13,4.24,4.67a11.71,11.71,0,0,0,5.15,3.51,5.52,5.52,0,0,0,5.75-1.54c1.3-1.65.94-4.51-1-5.4a4.13,4.13,0,0,0,2.64-7.67Z" style="fill:#263238"></path><path d="M199.36,160.52l-4.25,31.65a9.5,9.5,0,0,0,8.62,10.73h0a9.52,9.52,0,0,0,10.21-8.22c.32-2.38.59-4.37.63-4.61,0,0,8.16.32,9.81-7.57.8-3.82,1.81-11.81,2.63-19.05A15,15,0,0,0,215,147l-.76-.15C205.88,145.73,200.26,152.17,199.36,160.52Z" style="fill:#ffbe9d"></path><path d="M214.61,190a18.79,18.79,0,0,1-9.74-5s1.32,6.17,9.36,7Z" style="fill:#eb996e"></path><path d="M223.85,168.37a1.17,1.17,0,0,1-1.32.93,1.1,1.1,0,0,1-1-1.25,1.15,1.15,0,0,1,1.31-.93A1.11,1.11,0,0,1,223.85,168.37Z" style="fill:#263238"></path><path d="M224.55,167c-.17.12-.9-.68-2.12-.92s-2.23.2-2.33,0,.14-.31.59-.52a3.15,3.15,0,0,1,1.9-.2,3,3,0,0,1,1.65.91C224.56,166.66,224.63,167,224.55,167Z" style="fill:#263238"></path><path d="M211.87,166a1.16,1.16,0,0,1-1.31.93,1.1,1.1,0,0,1-1-1.25,1.16,1.16,0,0,1,1.31-.93A1.1,1.1,0,0,1,211.87,166Z" style="fill:#263238"></path><path d="M212.55,164.88c-.17.12-.9-.68-2.12-.92s-2.23.2-2.33,0,.14-.31.59-.52a3.15,3.15,0,0,1,1.9-.2,3,3,0,0,1,1.65.91C212.56,164.53,212.63,164.83,212.55,164.88Z" style="fill:#263238"></path><path d="M215.19,174.76a8.2,8.2,0,0,1,2.05,0c.31,0,.62,0,.71-.18a1.57,1.57,0,0,0,0-1c-.15-.81-.3-1.66-.46-2.55a40.64,40.64,0,0,1-.84-6.59A42.34,42.34,0,0,1,218,171c.15.89.28,1.74.41,2.55a1.81,1.81,0,0,1-.07,1.25.81.81,0,0,1-.6.36,1.9,1.9,0,0,1-.55,0A7.79,7.79,0,0,1,215.19,174.76Z" style="fill:#263238"></path><path d="M211.45,174.9c.2,0-.06,1.35.89,2.51s2.38,1.29,2.35,1.48-.36.19-1,.09a3.32,3.32,0,0,1-2-1.16,2.89,2.89,0,0,1-.66-2.08C211.15,175.18,211.36,174.88,211.45,174.9Z" style="fill:#263238"></path><path d="M213.8,160.17c-.19.31-1.37-.08-2.83-.19s-2.69.05-2.82-.28c-.06-.16.2-.43.73-.66a4.74,4.74,0,0,1,2.2-.32,4.85,4.85,0,0,1,2.11.68C213.67,159.71,213.88,160,213.8,160.17Z" style="fill:#263238"></path><path d="M224.79,163.39c-.27.24-1-.22-2-.43s-1.9-.18-2-.5c-.06-.16.13-.41.56-.6a2.85,2.85,0,0,1,1.76-.12,2.82,2.82,0,0,1,1.53.87C224.85,163,224.91,163.28,224.79,163.39Z" style="fill:#263238"></path><path d="M198.85,166.51c-.12-.09-5.12-2.68-6,2.77s4.76,5.21,4.8,5.06S198.85,166.51,198.85,166.51Z" style="fill:#ffbe9d"></path><path d="M196.31,172s-.11.05-.28.1a1,1,0,0,1-.71-.1,2.38,2.38,0,0,1-.74-2.28,3.21,3.21,0,0,1,.49-1.32,1.12,1.12,0,0,1,.83-.61.5.5,0,0,1,.52.35c0,.17,0,.27,0,.28s.13-.07.12-.3a.6.6,0,0,0-.15-.38.78.78,0,0,0-.51-.22,1.33,1.33,0,0,0-1.12.68,3.21,3.21,0,0,0-.58,1.47,2.47,2.47,0,0,0,1,2.57,1,1,0,0,0,.89,0C196.28,172.13,196.33,172,196.31,172Z" style="fill:#eb996e"></path><path d="M229,162.13a11.63,11.63,0,0,1-9.71-4.28c-1.6-2-2.62-4.65-4.89-5.86a6.55,6.55,0,0,0-5-.3,12.62,12.62,0,0,0-4.4,2.7c.74,4.32-1.17,8.61-3,12.58a2.19,2.19,0,0,1-.87,1.12c-.74.37-1.62-.2-2.07-.9a6.81,6.81,0,0,1-.77-3.81,22.71,22.71,0,0,1,1.77-8.77,15.44,15.44,0,0,1,5.67-6.83A14.64,14.64,0,0,1,216.48,146a17.92,17.92,0,0,1,9.5,5.67,10.36,10.36,0,0,1,2.57,4.48" style="fill:#263238"></path><path d="M235.77,152.56a1.19,1.19,0,0,1-.14.46,2.22,2.22,0,0,1-1,1,3.53,3.53,0,0,1-2.16.27,5.71,5.71,0,0,1-1.32-.34,3.06,3.06,0,0,1-1.26-.91,1.93,1.93,0,0,1-.37-1.66,1.69,1.69,0,0,1,1.42-1.16,2.14,2.14,0,0,1,1,.07,1.73,1.73,0,0,1,.84.6,2.51,2.51,0,0,1,.44,2,2.85,2.85,0,0,1-1.25,1.81,4.36,4.36,0,0,1-2.18.73A7.24,7.24,0,0,1,225.3,154a21.28,21.28,0,0,1-3.53-3.19,25.59,25.59,0,0,0-3.17-3,8.25,8.25,0,0,0-3.54-1.64,7.79,7.79,0,0,0-3.4.2,9.77,9.77,0,0,0-4.23,2.55c-.42.42-.72.78-.92,1s-.29.37-.3.37,0,0,.06-.11a3.17,3.17,0,0,1,.2-.29,9.05,9.05,0,0,1,.88-1.06,9.68,9.68,0,0,1,4.25-2.67,7.91,7.91,0,0,1,3.5-.23,8.45,8.45,0,0,1,3.65,1.65,27,27,0,0,1,3.22,3,20.18,20.18,0,0,0,3.48,3.15,7.08,7.08,0,0,0,4.36,1.38,4.27,4.27,0,0,0,2.05-.68,2.68,2.68,0,0,0,1.14-1.65,2.25,2.25,0,0,0-.38-1.85,1.66,1.66,0,0,0-1.62-.6,1.5,1.5,0,0,0-1.25,1,1.75,1.75,0,0,0,.33,1.49,2.81,2.81,0,0,0,1.16.87,6.07,6.07,0,0,0,1.29.35,3.45,3.45,0,0,0,2.08-.22,2.2,2.2,0,0,0,1-.9A2.29,2.29,0,0,0,235.77,152.56Z" style="fill:#455a64"></path><path d="M195.63,154.53a10.12,10.12,0,0,0,1.57.75,4.69,4.69,0,0,0,1.85.17,7.69,7.69,0,0,0,2.22-.58,6.51,6.51,0,0,0,3-2.75,13.93,13.93,0,0,0,.68-1.6,1.13,1.13,0,0,1-.06.47,5.38,5.38,0,0,1-.45,1.22,6.35,6.35,0,0,1-3.11,2.91,7.61,7.61,0,0,1-2.31.58,4.63,4.63,0,0,1-1.93-.24,4,4,0,0,1-1.15-.61A1.55,1.55,0,0,1,195.63,154.53Z" style="fill:#455a64"></path><path d="M195.1,158.49c0-.05.62.22,1.65.36a7.59,7.59,0,0,0,7.14-2.93c.63-.83.87-1.44.92-1.42a1.56,1.56,0,0,1-.15.43A5.46,5.46,0,0,1,204,156a7.34,7.34,0,0,1-3.21,2.58,7.42,7.42,0,0,1-4.11.43,7,7,0,0,1-1.21-.34C195.24,158.59,195.09,158.51,195.1,158.49Z" style="fill:#455a64"></path><path d="M207.49,169.26a.14.14,0,0,1-.13-.15.13.13,0,0,1,.13-.15.14.14,0,0,1,.14.15A.15.15,0,0,1,207.49,169.26Z" style="fill:#eb996e"></path><path d="M209.92,169.18a.15.15,0,0,1-.14-.17.16.16,0,0,1,.14-.17.17.17,0,0,1,.14.17A.15.15,0,0,1,209.92,169.18Z" style="fill:#eb996e"></path><path d="M211.49,169.45c-.07,0-.13-.11-.12-.23s.08-.22.15-.21.13.11.12.23S211.57,169.46,211.49,169.45Z" style="fill:#eb996e"></path><path d="M208.35,170.94c-.08,0-.13-.07-.12-.11s.08-.08.15-.06.13.06.12.11S208.42,171,208.35,170.94Z" style="fill:#eb996e"></path><path d="M210.58,170.86a.14.14,0,0,1-.12-.17.15.15,0,0,1,.15-.14.16.16,0,0,1,.12.17A.14.14,0,0,1,210.58,170.86Z" style="fill:#eb996e"></path><path d="M221.93,171.72a.15.15,0,0,1-.14-.16.14.14,0,1,1,.27,0A.15.15,0,0,1,221.93,171.72Z" style="fill:#eb996e"></path><path d="M223.54,171.88c-.08,0-.13-.09-.12-.18s.08-.17.15-.16a.15.15,0,0,1,.12.18C223.68,171.82,223.61,171.89,223.54,171.88Z" style="fill:#eb996e"></path><path d="M220.52,171.48a.13.13,0,0,1-.14-.12.14.14,0,1,1,.14.12Z" style="fill:#eb996e"></path><path d="M221.38,173.3a.15.15,0,0,1-.16-.13.14.14,0,0,1,.09-.18.15.15,0,0,1,.17.12A.15.15,0,0,1,221.38,173.3Z" style="fill:#eb996e"></path><path d="M222.79,173.29a.12.12,0,0,1-.07-.16.13.13,0,0,1,.17,0,.13.13,0,0,1,.07.17A.12.12,0,0,1,222.79,173.29Z" style="fill:#eb996e"></path><path d="M193.85,173.05a3.41,3.41,0,0,0-.38,1.2,1.81,1.81,0,0,0,.36,1.25,1.67,1.67,0,0,0,1.39.67,1.54,1.54,0,0,0,1.26-.85,1.94,1.94,0,0,0,0-1.3,2.66,2.66,0,0,0-.61-1.11s.53.24.79,1.05a2.06,2.06,0,0,1,0,1.46,1.76,1.76,0,0,1-1.48,1,1.89,1.89,0,0,1-1.6-.79,2,2,0,0,1-.36-1.42,2.19,2.19,0,0,1,.34-.92C193.74,173.12,193.84,173,193.85,173.05Z" style="fill:#263238"></path><path d="M194.05,172.13s.19.11.23.43a.8.8,0,0,1-.13.54.82.82,0,0,1-.6.36.76.76,0,0,1-.64-.3.6.6,0,0,1-.1-.56c.11-.33.36-.37.36-.34s-.14.14-.17.38a.43.43,0,0,0,.1.37.55.55,0,0,0,.43.18.63.63,0,0,0,.41-.23.71.71,0,0,0,.15-.39C194.1,172.32,194,172.16,194.05,172.13Z" style="fill:#263238"></path><path d="M216.91,378.7l4.2,21.07,8.13,15.7a2.21,2.21,0,0,1-1.08,3h0a2.2,2.2,0,0,1-2-.13C222.27,416,208,407.28,207.8,405.73,207.54,403.92,201,381,201,381Z" style="fill:#63B4C1"></path><g style="opacity:0.6000000000000001"><path d="M228.16,418.5l-20.68-14.19.2.89a3.31,3.31,0,0,0,1.23,1.92c1.69,1.27,6.4,4.67,17.18,11.26a2.17,2.17,0,0,0,2.07.12Z" style="fill:#fff"></path></g><g style="opacity:0.6000000000000001"><path d="M210.27,396.59a1.33,1.33,0,0,1,.74,1.62,1.29,1.29,0,0,1-1.6.74,1.41,1.41,0,0,1-.77-1.72,1.33,1.33,0,0,1,1.75-.59" style="fill:#fff"></path></g><path d="M221.32,410.41a4.77,4.77,0,0,1,3.79-3c0-.06-.3-.16-.8-.12a3.43,3.43,0,0,0-1.81.75,3.39,3.39,0,0,0-1.12,1.6C221.23,410.09,221.27,410.41,221.32,410.41Z" style="fill:#263238"></path><path d="M223.44,412.88c.12.07.64-.76,1.66-1.31a16.58,16.58,0,0,1,2-.72,2.45,2.45,0,0,0-2.22.31C223.71,411.79,223.32,412.85,223.44,412.88Z" style="fill:#263238"></path><path d="M217.74,407.43a22,22,0,0,1,2.42-2.2,21.8,21.8,0,0,1,3-1.42,6,6,0,0,0-5.37,3.62Z" style="fill:#263238"></path><path d="M215.93,401.14c.08.11,1.13-.63,2.63-1s2.77-.3,2.78-.44a4.27,4.27,0,0,0-2.91,0A4.23,4.23,0,0,0,215.93,401.14Z" style="fill:#263238"></path><path d="M214.54,395a10.82,10.82,0,0,1,2.71-1.13,10.47,10.47,0,0,1,2.93.08c0-.05-.26-.27-.81-.44a4.83,4.83,0,0,0-4.24.8C214.69,394.64,214.5,395,214.54,395Z" style="fill:#263238"></path><path d="M217,392.69a2,2,0,0,0-.15-.8,5.72,5.72,0,0,0-1.1-1.94,2.46,2.46,0,0,0-1.3-.93.87.87,0,0,0-.93.41,1.4,1.4,0,0,0-.12,1,3.1,3.1,0,0,0,3.28,2.21,3.61,3.61,0,0,0,3.05-2.61,1.24,1.24,0,0,0-.17-1,.86.86,0,0,0-1-.25,3,3,0,0,0-1.22,1,6.1,6.1,0,0,0-1.07,1.94,1.93,1.93,0,0,0-.16.8,9.83,9.83,0,0,1,1.48-2.53,2.89,2.89,0,0,1,1.09-.87.48.48,0,0,1,.54.13.92.92,0,0,1,.07.69,3.23,3.23,0,0,1-2.67,2.23,2.69,2.69,0,0,1-2.82-1.84,1.05,1.05,0,0,1,0-.71.48.48,0,0,1,.51-.23,2.28,2.28,0,0,1,1.13.76A8.63,8.63,0,0,1,217,392.69Z" style="fill:#263238"></path><g style="opacity:0.30000000000000004"><polygon points="202.21 385.26 217.73 382.8 217.14 379.88 201.8 383.79 202.21 385.26"></polygon></g><path d="M247,371.62,243.38,388s15.48,9.16,15.11,12.26l-32.08-5.83L231,368.66Z" style="fill:#63B4C1"></path><g style="opacity:0.6000000000000001"><path d="M233.71,384.84a1.34,1.34,0,0,0-1.18,1.33,1.28,1.28,0,0,0,1.31,1.18,1.4,1.4,0,0,0,1.24-1.41,1.33,1.33,0,0,0-1.5-1.08" style="fill:#fff"></path></g><g style="opacity:0.6000000000000001"><path d="M226.41,394.47l.56-2.58,30.55,6.55s1.31.89,1,1.86Z" style="fill:#fff"></path></g><path d="M243.93,388c0,.15-.83.08-1.69.45s-1.4.94-1.53.85.27-.95,1.32-1.37S244,387.83,243.93,388Z" style="fill:#263238"></path><path d="M247,390c0,.16-.72.3-1.37.87s-.93,1.24-1.09,1.2-.09-.94.73-1.63S247.06,389.82,247,390Z" style="fill:#263238"></path><path d="M248.22,394.34c-.15,0-.22-.81.33-1.6s1.36-1,1.4-.85-.49.52-.94,1.17S248.38,394.36,248.22,394.34Z" style="fill:#263238"></path><path d="M244.33,384.13c-.09.14-.77-.21-1.66-.31s-1.64.05-1.7-.1.71-.59,1.76-.45S244.43,384,244.33,384.13Z" style="fill:#263238"></path><g style="opacity:0.30000000000000004"><polygon points="246.26 374.87 245.62 377.8 229.88 374.79 230.34 372.13 246.26 374.87"></polygon></g><path d="M245,380.81a3.14,3.14,0,0,1-1.61-.3,7.55,7.55,0,0,1-1.59-.82A8,8,0,0,1,241,379a2,2,0,0,1-.42-.47.7.7,0,0,1,.08-.84.9.9,0,0,1,.76-.24,2.07,2.07,0,0,1,.58.2,6,6,0,0,1,.94.52,5.56,5.56,0,0,1,1.3,1.24c.62.83.77,1.46.71,1.48s-.35-.52-1-1.23a6.17,6.17,0,0,0-1.28-1.06,5.94,5.94,0,0,0-.87-.45c-.33-.16-.61-.21-.73-.08s-.05.08,0,.19a1.56,1.56,0,0,0,.31.34,8.61,8.61,0,0,0,.76.64,8.78,8.78,0,0,0,1.45.88A9.94,9.94,0,0,1,245,380.81Z" style="fill:#263238"></path><path d="M244.75,381a2.61,2.61,0,0,1-.14-1.63,5.21,5.21,0,0,1,.54-1.72,5,5,0,0,1,.59-.9,1.33,1.33,0,0,1,1.17-.63.76.76,0,0,1,.59.57,2.87,2.87,0,0,1,.06.62,3.7,3.7,0,0,1-.2,1.08,3.77,3.77,0,0,1-1,1.54c-.78.72-1.46.78-1.47.73s.57-.29,1.19-1a3.78,3.78,0,0,0,.78-1.42,3.19,3.19,0,0,0,.14-.94c0-.35-.06-.64-.2-.63s-.47.17-.66.42a5.71,5.71,0,0,0-.55.8,5.41,5.41,0,0,0-.6,1.55C244.78,380.37,244.84,381,244.75,381Z" style="fill:#263238"></path><path d="M207.15,267.21l51.6,10.45a17.45,17.45,0,0,1,13,22.81l-20.22,75.3-25.9-2.42,15.66-70.89-55-13Z" style="fill:#263238"></path><path d="M167.56,279a19.86,19.86,0,0,0-2.44,17.52,6,6,0,0,0,.24.6c.56,1.13,17.2,12.18,17.2,12.18L197.07,385l23.41-6-5.71-68.89a39.56,39.56,0,0,0-10.35-23.56L197,278.51l-27.19-2.78Z" style="fill:#263238"></path><path d="M248.75,287.37a24.13,24.13,0,0,1-1.56,2.36,46.6,46.6,0,0,0-3.32,5.91,48.79,48.79,0,0,0-2.77,7.67l-.2.72,0-.74a6.92,6.92,0,0,1,0-1.46,6.74,6.74,0,0,1,.24,1.44l-.24,0a35,35,0,0,1,2.59-7.8,36,36,0,0,1,3.47-5.9c.52-.71,1-1.26,1.29-1.63S248.73,287.35,248.75,287.37Z" style="fill:#455a64"></path><path d="M242.24,288.63a19.78,19.78,0,0,1-.52,2.27,34.88,34.88,0,0,0-.83,5.51A35.56,35.56,0,0,0,241,302a18.17,18.17,0,0,1,.2,2.32,9.32,9.32,0,0,1-.52-2.28,27.92,27.92,0,0,1-.21-5.65,27.25,27.25,0,0,1,1-5.57A8.87,8.87,0,0,1,242.24,288.63Z" style="fill:#455a64"></path><path d="M216.32,328.87a2.19,2.19,0,0,1-.08-.51c0-.39-.09-.87-.15-1.47-.12-1.33-.29-3.15-.49-5.38a142.89,142.89,0,0,0-2.44-17.62,34.58,34.58,0,0,0-3.35-9.12,44,44,0,0,0-4.61-6.51c-1.44-1.76-2.65-3.16-3.46-4.14l-.93-1.14c-.21-.27-.32-.41-.3-.42a2.56,2.56,0,0,1,.37.36l1,1.08c.85.95,2.1,2.31,3.58,4.06a42,42,0,0,1,4.72,6.5,34.07,34.07,0,0,1,3.43,9.23,126.22,126.22,0,0,1,2.32,17.7c.19,2.27.27,4.12.34,5.39,0,.6.05,1.09.07,1.47A1.93,1.93,0,0,1,216.32,328.87Z" style="fill:#455a64"></path><path d="M197.07,385a.81.81,0,0,1-.07-.23c0-.17-.09-.39-.16-.67l-.54-2.59-1.88-9.57c-1.56-8.11-3.69-19.26-6-31.58s-4.44-23.49-6-31.6c-.77-4-1.39-7.28-1.82-9.58-.22-1.1-.39-2-.51-2.6s-.2-.9-.2-.9a20.47,20.47,0,0,1,.88,3.47c.49,2.25,1.16,5.51,2,9.55,1.61,8.07,3.77,19.23,6.1,31.58s4.39,23.49,5.91,31.61c.73,4,1.33,7.28,1.75,9.58l.45,2.62c0,.27.08.5.11.68A1.31,1.31,0,0,1,197.07,385Z" style="fill:#455a64"></path><path d="M219.85,226.78c0,.9,5.71,41.11,10.36,43.89S269,269.34,269,269.34l-2.35-15.16-26.18-.91-3.13-33.75a13.89,13.89,0,0,0-6.75-10.66h0Z" style="fill:#63B4C1"></path><path d="M173,192.18a72.57,72.57,0,0,1,22.24-1.69c4.38,5.6,13.17,8.92,19,5l17.6,14.29-17,45.73L215.9,269l-18.15,10.35-28-3.61-2.41-61.07Z" style="fill:#63B4C1"></path><path d="M193.42,192.18c0-.19.06-.37.1-.55a4,4,0,0,0-.12-.68Z" style="fill:#63B4C1"></path><path d="M225.85,222c.12,0-1.39,5.43-3.37,12s-3.68,12-3.8,11.92,1.39-5.43,3.37-12.05S225.73,222,225.85,222Z" style="fill:#263238"></path><path d="M234.09,262.47a3.73,3.73,0,0,1-.24-1.78,7.75,7.75,0,0,1,4.72-6.91,4.1,4.1,0,0,1,1.75-.43c0,.08-.65.23-1.62.72a8.24,8.24,0,0,0-4.53,6.64C234.06,261.78,234.17,262.46,234.09,262.47Z" style="fill:#263238"></path><g style="opacity:0.2"><path d="M231.13,271.78a13.48,13.48,0,0,0,9.42-7.42,9.36,9.36,0,0,1,1.5-2.7,6.89,6.89,0,0,1,3.76-1.59l17.85-3.6c-.05-.82-.1-1.58-.16-2.4l-16.93-.53-12.75,5L231.13,271"></path></g><g style="opacity:0.30000000000000004"><polygon points="167.56 219.19 173.09 216.05 168.07 232.16 167.56 219.19"></polygon></g><path d="M274,237.79c-.28-1.56,1.27-2.91,2.82-3.24s3.16,0,4.74-.15c4.38-.4,7.82-4.24,12.18-4.85a9.22,9.22,0,0,1,9.18,4.88,10.09,10.09,0,0,1-1,10.47,11.15,11.15,0,0,1-9.77,4.17c-1.77-.17-3.59-.73-5.28-.21a16.69,16.69,0,0,0-2.86,1.52,6,6,0,0,1-3.87.75,3.75,3.75,0,0,1-2.92-2.45" style="fill:#263238"></path><path d="M181.92,237.17c-6.66-3.16-12.52-4.53-19.88-4a48.72,48.72,0,0,0-7.75,1.21c-12.25,3-25.59,15.13-23.48,31.18,1.39,10.54,10.57,30.61,30.81,32.07a32.18,32.18,0,0,0,16.62-3.44,110.43,110.43,0,0,0,10.67-6.12,20,20,0,0,1,11.66-3.16c6.09.26,14.87-.94,21.32-4.36,12-6.32,14-15.3,11.48-25.22-2-7.94-4.08-18-15.35-22.89-6.15-2.68-14.5-2.92-25,3.94A12.64,12.64,0,0,1,181.92,237.17Z" style="fill:#263238"></path><path d="M178.73,241.13A21.71,21.71,0,0,1,171,238.8a30.19,30.19,0,0,0-20.31-2.56c-12.25,2.94-22.76,15.68-20.68,31.44,1.33,10.17,5.81,28.57,25.29,30.56A32.68,32.68,0,0,0,173,294.9a113.35,113.35,0,0,0,10.89-6.17,19.15,19.15,0,0,1,11.14-3c6.08.27,15.53-.12,21.61-4.31,9.59-6.6,12.84-15,9.9-24.35-2.41-7.69-3.73-17.79-13.67-22.93-5.93-3.07-14.33-1.64-24.86,5.12A14.61,14.61,0,0,1,178.73,241.13Z" style="fill:#455a64"></path><circle cx="185.36" cy="264.54" r="12.17" transform="translate(-81.87 446.02) rotate(-89.16)" style="fill:#263238"></circle><path d="M172.66,261.81l115.59-26.73a5.7,5.7,0,0,1,6.85,4.31h0a5.7,5.7,0,0,1-4.31,6.8l-115.25,26C173,268.87,171.87,265.44,172.66,261.81Z" style="fill:#455a64"></path><path d="M182.25,276.08a2.59,2.59,0,0,1-.87-.16,9.91,9.91,0,0,1-2.23-.91,11.42,11.42,0,0,1-5.38-13.75,10.14,10.14,0,0,1,1-2.19,2.79,2.79,0,0,1,.53-.7,22.27,22.27,0,0,0-1.24,3,11.53,11.53,0,0,0,5.23,13.38A22.23,22.23,0,0,0,182.25,276.08Z" style="fill:#263238"></path><path d="M296.34,244.71c0,.13-26.84,6.3-60,13.78S176.27,272,176.25,271.83s26.83-6.29,60-13.78S296.31,244.59,296.34,244.71Z" style="fill:#263238"></path><path d="M244.22,244.88c0,.13-15.74,3.9-35.2,8.43s-35.27,8.12-35.3,8,15.73-3.89,35.2-8.43S244.19,244.76,244.22,244.88Z" style="fill:#263238"></path><path d="M197.11,266.76a31.32,31.32,0,0,1-1.58-5,30.81,30.81,0,0,1-1.14-5.13,30.56,30.56,0,0,1,1.58,5A29.64,29.64,0,0,1,197.11,266.76Z" style="fill:#263238"></path><path d="M189,268.72a32.11,32.11,0,0,1-1.58-5,30.81,30.81,0,0,1-1.14-5.13A61,61,0,0,1,189,268.72Z" style="fill:#263238"></path><path d="M180.79,270.67a60.3,60.3,0,0,1-2.72-10.15,61,61,0,0,1,2.72,10.15Z" style="fill:#263238"></path><path d="M205.16,265.13a30.56,30.56,0,0,1-1.58-5,31,31,0,0,1-1.14-5.13,30.16,30.16,0,0,1,1.58,5A30.81,30.81,0,0,1,205.16,265.13Z" style="fill:#263238"></path><path d="M213.21,263.5a61,61,0,0,1-2.72-10.15,60.3,60.3,0,0,1,2.72,10.15Z" style="fill:#263238"></path><path d="M221.22,261.51a29.46,29.46,0,0,1-1.58-5,30.29,30.29,0,0,1-1.15-5.14,30.9,30.9,0,0,1,1.58,5A31.52,31.52,0,0,1,221.22,261.51Z" style="fill:#263238"></path><path d="M229.23,259.57a29.08,29.08,0,0,1-1.58-5,30.3,30.3,0,0,1-1.15-5.13,30.56,30.56,0,0,1,1.58,5A31.52,31.52,0,0,1,229.23,259.57Z" style="fill:#263238"></path><path d="M237.24,257.67a30.9,30.9,0,0,1-1.58-5,30.81,30.81,0,0,1-1.14-5.13,31.75,31.75,0,0,1,1.58,5A30.8,30.8,0,0,1,237.24,257.67Z" style="fill:#263238"></path><path d="M245.88,255.68a30.9,30.9,0,0,1-1.58-5,31.52,31.52,0,0,1-1.15-5.13,29.46,29.46,0,0,1,1.58,5A30.29,30.29,0,0,1,245.88,255.68Z" style="fill:#263238"></path><path d="M254.52,253.69a29.77,29.77,0,0,1-1.58-5,30.3,30.3,0,0,1-1.15-5.13,30.56,30.56,0,0,1,1.58,5A31.5,31.5,0,0,1,254.52,253.69Z" style="fill:#263238"></path><path d="M263.15,251.7a32.11,32.11,0,0,1-1.58-5,30.81,30.81,0,0,1-1.14-5.13,30.56,30.56,0,0,1,1.58,5A30.8,30.8,0,0,1,263.15,251.7Z" style="fill:#263238"></path><path d="M271.79,249.71a30.9,30.9,0,0,1-1.58-5,30.81,30.81,0,0,1-1.14-5.13,30.56,30.56,0,0,1,1.58,5A30.8,30.8,0,0,1,271.79,249.71Z" style="fill:#263238"></path><path d="M280.43,247.72a30.9,30.9,0,0,1-1.58-5,30.81,30.81,0,0,1-1.14-5.13,30.49,30.49,0,0,1,1.58,5A30.59,30.59,0,0,1,280.43,247.72Z" style="fill:#263238"></path><path d="M289.07,245.73a30.9,30.9,0,0,1-1.58-5,29.64,29.64,0,0,1-1.14-5.13,31.67,31.67,0,0,1,1.58,5A30.59,30.59,0,0,1,289.07,245.73Z" style="fill:#263238"></path><path d="M281.09,232.12a1.17,1.17,0,1,1-1.31-1A1.17,1.17,0,0,1,281.09,232.12Z" style="fill:#263238"></path><path d="M284.76,230.84a1.17,1.17,0,1,1-1.31-1A1.17,1.17,0,0,1,284.76,230.84Z" style="fill:#263238"></path><path d="M288.79,229.45a1.17,1.17,0,1,1-1.31-1A1.17,1.17,0,0,1,288.79,229.45Z" style="fill:#263238"></path><path d="M281,235.48c-.12,0-.45-.65-.75-1.54s-.44-1.64-.32-1.68.45.65.75,1.54S281.12,235.44,281,235.48Z" style="fill:#263238"></path><path d="M284.84,234.62c-.12,0-.46-.64-.75-1.53s-.45-1.64-.33-1.68.46.65.76,1.53S285,234.58,284.84,234.62Z" style="fill:#263238"></path><path d="M288.81,233.09c-.12,0-.45-.65-.75-1.54s-.44-1.64-.32-1.68.45.65.75,1.54S288.93,233.05,288.81,233.09Z" style="fill:#263238"></path><path d="M291.88,251a1.18,1.18,0,0,1,2.35.1,1.18,1.18,0,0,1-2.35-.1Z" style="fill:#263238"></path><path d="M288.05,251.67a1.18,1.18,0,0,1,2.35.09,1.18,1.18,0,1,1-2.35-.09Z" style="fill:#263238"></path><path d="M283.85,252.38A1.17,1.17,0,1,1,285,253.6,1.17,1.17,0,0,1,283.85,252.38Z" style="fill:#263238"></path><path d="M292.52,247.71c.12,0,.34.71.49,1.64s.17,1.69,0,1.71-.34-.72-.49-1.64A3.5,3.5,0,0,1,292.52,247.71Z" style="fill:#263238"></path><path d="M288.6,247.92c.12,0,.34.72.49,1.64s.16,1.69,0,1.71-.34-.71-.49-1.64S288.47,247.94,288.6,247.92Z" style="fill:#263238"></path><path d="M284.42,248.79c.13,0,.35.71.49,1.64s.17,1.69,0,1.7-.35-.71-.49-1.63S284.3,248.81,284.42,248.79Z" style="fill:#263238"></path><path d="M183.46,241s-.13.19-.39.54L181.93,243c-1,1.34-2.48,3.22-4.26,5.53a51.72,51.72,0,0,1-6.86,7.75,32.09,32.09,0,0,1-11.08,6.09c-4.29,1.44-8.61,1.83-12.43,2.49a38,38,0,0,0-5.36,1.27,20,20,0,0,0-4.34,2,13.73,13.73,0,0,0-4.8,4.9,11,11,0,0,0-.75,1.74c-.12.41-.2.62-.2.62s0-.22.15-.64a11.2,11.2,0,0,1,.7-1.77,13.7,13.7,0,0,1,4.8-5,19.45,19.45,0,0,1,4.37-2.06,35.74,35.74,0,0,1,5.39-1.3c3.84-.68,8.13-1.07,12.39-2.51a32,32,0,0,0,11-6,52,52,0,0,0,6.88-7.68l4.32-5.48c.5-.61.89-1.1,1.19-1.48S183.46,241,183.46,241Z" style="fill:#e0e0e0"></path><path d="M173.89,240.13s-.16.09-.47.23a13.74,13.74,0,0,0-1.32.69,18.62,18.62,0,0,0-4.19,3.52c-1.59,1.7-3.16,4-5,6.42a31.48,31.48,0,0,1-3.23,3.61,20.16,20.16,0,0,1-4.25,3,28,28,0,0,1-9.57,2.92,48.92,48.92,0,0,1-8.18.27c-2.33-.11-4.21-.28-5.5-.4l-1.49-.15c-.34,0-.52-.08-.52-.08l.52,0,1.5.1c1.29.09,3.17.24,5.5.32a50.12,50.12,0,0,0,8.14-.33,28,28,0,0,0,9.47-2.91,19.92,19.92,0,0,0,4.2-3,30.25,30.25,0,0,0,3.21-3.57c1.89-2.42,3.48-4.7,5.1-6.39A18,18,0,0,1,172,241,10.12,10.12,0,0,1,173.89,240.13Z" style="fill:#e0e0e0"></path><path d="M150.15,245.69a7.09,7.09,0,0,1-1.93,1.14,9.65,9.65,0,0,1-6,.46,4.1,4.1,0,0,1-1.87-.85.94.94,0,0,1-.25-1.09,2.27,2.27,0,0,1,.82-.81,15.42,15.42,0,0,1,9.66-2.87,11.55,11.55,0,0,1,2.82.47,5.68,5.68,0,0,1,2.51,1.54,4,4,0,0,1,1.07,2.74,3.36,3.36,0,0,1-1.31,2.53,12.24,12.24,0,0,1-5,2,34.65,34.65,0,0,1-9,.94,23.32,23.32,0,0,1-6-1,14.53,14.53,0,0,1-2.09-.81l.54.18c.36.14.89.32,1.58.53a24.41,24.41,0,0,0,6,.9,35.43,35.43,0,0,0,8.95-1,12.06,12.06,0,0,0,4.87-1.91,3.1,3.1,0,0,0,1.21-2.33,3.77,3.77,0,0,0-1-2.56,5.47,5.47,0,0,0-2.4-1.46,10.69,10.69,0,0,0-2.74-.46,15.19,15.19,0,0,0-5.23.66,15,15,0,0,0-4.28,2.12,2.24,2.24,0,0,0-.77.72.75.75,0,0,0,.21.86,4.2,4.2,0,0,0,1.77.81,9.63,9.63,0,0,0,5.94-.38,10,10,0,0,0,1.48-.74A4.87,4.87,0,0,1,150.15,245.69Z" style="fill:#e0e0e0"></path><path d="M227.45,265.88l-1,0a17.44,17.44,0,0,0-2.84.33,23.17,23.17,0,0,0-4.33,1.29,37.84,37.84,0,0,0-5.35,2.7c-1.91,1.13-3.91,2.52-6.09,4a63.4,63.4,0,0,1-7.16,4.33,26.29,26.29,0,0,1-8.85,2.64,40,40,0,0,1-9.93-.24c-6.76-.94-13-2.87-18.79-3.77a44.82,44.82,0,0,0-8.3-.64,28,28,0,0,0-7.16,1.09,20.77,20.77,0,0,0-9,5.19,18,18,0,0,0-1.8,2.22c-.36.55-.56.83-.56.83s.17-.3.51-.86a16.41,16.41,0,0,1,1.77-2.26,20.59,20.59,0,0,1,9-5.3,27.77,27.77,0,0,1,7.2-1.14,45.23,45.23,0,0,1,8.35.63c5.84.88,12.06,2.81,18.79,3.74a39.35,39.35,0,0,0,9.85.24,25.92,25.92,0,0,0,8.78-2.6,64.37,64.37,0,0,0,7.15-4.29c2.17-1.45,4.19-2.84,6.12-4a36.33,36.33,0,0,1,5.39-2.68,23,23,0,0,1,4.36-1.26,17.64,17.64,0,0,1,2.86-.28Z" style="fill:#e0e0e0"></path><path d="M148.93,292.91a2.18,2.18,0,0,1,.45,0l1.3.08,4.76.35,3.29.25a26.85,26.85,0,0,0,3.76.18,5,5,0,0,0,1.92-.49,2.44,2.44,0,0,0,1.26-1.51,3.43,3.43,0,0,0-1.79-3.62,11,11,0,0,0-4.24-1.15,28.08,28.08,0,0,0-4.16-.15,27.06,27.06,0,0,0-6.93,1.2,26.4,26.4,0,0,0-4.41,1.79c-.51.24-.88.46-1.14.61a2.13,2.13,0,0,1-.41.2,4.39,4.39,0,0,1,.38-.25c.25-.16.62-.4,1.12-.66a25.35,25.35,0,0,1,4.4-1.88,26.73,26.73,0,0,1,7-1.26,26.05,26.05,0,0,1,4.2.14,11.14,11.14,0,0,1,4.35,1.18,3.65,3.65,0,0,1,1.9,3.92,2.68,2.68,0,0,1-1.39,1.67,5.09,5.09,0,0,1-2,.5,27,27,0,0,1-3.8-.19l-3.28-.29-4.76-.44-1.29-.13Z" style="fill:#e0e0e0"></path><path d="M224,273.36a1.35,1.35,0,0,1-.19.23l-.57.64c-.25.28-.56.61-.95,1s-.8.8-1.32,1.23a33.11,33.11,0,0,1-3.72,2.84,38,38,0,0,1-5,2.78,38.66,38.66,0,0,1-5.4,1.95,34.4,34.4,0,0,1-4.59.92c-.66.11-1.26.14-1.79.18s-1,.07-1.35.08h-.86a1,1,0,0,1-.3,0l.3,0,.85-.06c.37,0,.83-.05,1.35-.12s1.12-.1,1.78-.22a38.88,38.88,0,0,0,4.55-1,42.91,42.91,0,0,0,5.35-1.95,42,42,0,0,0,5-2.74,37.1,37.1,0,0,0,3.74-2.79c.52-.41.94-.83,1.34-1.19s.71-.67,1-.93l.61-.6C224,273.42,224,273.35,224,273.36Z" style="fill:#e0e0e0"></path><path d="M222.07,244.67s-.11.14-.34.38a9.85,9.85,0,0,1-1.08,1,15.39,15.39,0,0,1-4.74,2.54,25.67,25.67,0,0,1-7.87,1.24,88.83,88.83,0,0,1-9.74-.71,45.56,45.56,0,0,0-9.7-.21,20.56,20.56,0,0,0-7.53,2.32,13.61,13.61,0,0,0-4.08,3.4c-.78,1-1.07,1.64-1.11,1.62l.24-.46a10.51,10.51,0,0,1,.79-1.23,13.37,13.37,0,0,1,4.07-3.49,20.37,20.37,0,0,1,7.59-2.41,44.74,44.74,0,0,1,9.76.19,91.5,91.5,0,0,0,9.71.73,26.06,26.06,0,0,0,7.81-1.17,15.7,15.7,0,0,0,4.73-2.44C221.59,245.18,222.05,244.64,222.07,244.67Z" style="fill:#e0e0e0"></path><path d="M205.1,238.07a2.64,2.64,0,0,0,.15.37,1.32,1.32,0,0,0,.92.57,1.41,1.41,0,0,0,1.51-.63,2.24,2.24,0,0,0-.08-2.22,4.27,4.27,0,0,0-2.25-1.67,7.32,7.32,0,0,0-3.23-.57,3.28,3.28,0,0,0-1.62.6,3.41,3.41,0,0,0-1.1,1.43,4,4,0,0,0,.36,3.69,5.82,5.82,0,0,0,3,2.33,9.41,9.41,0,0,0,3.61.42,15.57,15.57,0,0,0,6-1.62,16.31,16.31,0,0,0,3.5-2.35c.37-.33.65-.6.84-.78a2.27,2.27,0,0,1,.29-.28,1.51,1.51,0,0,1-.25.31c-.18.21-.45.48-.81.83a15.42,15.42,0,0,1-3.48,2.44,15.64,15.64,0,0,1-6.06,1.7,9.62,9.62,0,0,1-3.72-.42,6,6,0,0,1-3.18-2.43,4.24,4.24,0,0,1-.37-3.94,3.63,3.63,0,0,1,1.19-1.54,3.55,3.55,0,0,1,1.75-.64,7.5,7.5,0,0,1,3.33.61,4.41,4.41,0,0,1,2.34,1.78,2.39,2.39,0,0,1,0,2.4,1.53,1.53,0,0,1-1.65.66,1.38,1.38,0,0,1-1-.66A.74.74,0,0,1,205.1,238.07Z" style="fill:#e0e0e0"></path><path d="M174.24,270.82h-.44l-1.26-.1c-.55,0-1.22-.1-2-.12s-1.66-.09-2.64-.08c-2,0-4.29.05-6.87.26a68.42,68.42,0,0,0-16.43,3.53c-2.45.87-4.61,1.75-6.38,2.59-.9.39-1.68.81-2.38,1.16s-1.28.66-1.76.93l-1.11.6a1.77,1.77,0,0,1-.4.19s.12-.09.37-.24l1.09-.64c.47-.29,1.05-.62,1.74-1s1.47-.79,2.37-1.2a66.32,66.32,0,0,1,6.37-2.64,69.62,69.62,0,0,1,8.14-2.31,70.86,70.86,0,0,1,8.36-1.24,65.28,65.28,0,0,1,6.89-.2c1,0,1.87.08,2.65.12s1.45.1,2,.17l1.25.14Z" style="fill:#e0e0e0"></path><path d="M213.31,265.11a3.34,3.34,0,0,1-.6.29c-.39.18-1,.41-1.67.68a52.06,52.06,0,0,1-5.7,1.76,51.43,51.43,0,0,1-5.86,1.08c-.76.09-1.38.15-1.8.17a4.25,4.25,0,0,1-.67,0,3.28,3.28,0,0,1,.66-.12l1.78-.26c1.5-.23,3.57-.6,5.83-1.15s4.25-1.19,5.69-1.68l1.7-.59A2.55,2.55,0,0,1,213.31,265.11Z" style="fill:#e0e0e0"></path><path d="M183.48,208.23a28.58,28.58,0,0,1-2.56-4.79,28.58,28.58,0,0,1-2.1-5,28.51,28.51,0,0,1,2.57,4.79A29,29,0,0,1,183.48,208.23Z" style="fill:#fafafa"></path><path d="M186.26,226.32a14,14,0,0,1-3.18,2.13,13.53,13.53,0,0,1-3.45,1.68,28.53,28.53,0,0,1,6.63-3.81Z" style="fill:#fafafa"></path><path d="M199.35,221.68a23.93,23.93,0,0,1-1.76-4.74,24.29,24.29,0,0,1-1.25-4.89,25.1,25.1,0,0,1,1.75,4.74A25.64,25.64,0,0,1,199.35,221.68Z" style="fill:#fafafa"></path><path d="M213.15,208.05a9.85,9.85,0,0,1-3.71-1.62,9.69,9.69,0,0,1-3.11-2.6,40.06,40.06,0,0,1,3.38,2.16A38.39,38.39,0,0,1,213.15,208.05Z" style="fill:#fafafa"></path><path d="M218.76,220.08a11.5,11.5,0,0,1-2.89,1.74,11,11,0,0,1-3.13,1.27,22,22,0,0,1,6-3Z" style="fill:#fafafa"></path><path d="M232.26,219.87a17.21,17.21,0,0,1-1.95-3.71,16.24,16.24,0,0,1-1.46-3.92,17.55,17.55,0,0,1,1.94,3.71A17.29,17.29,0,0,1,232.26,219.87Z" style="fill:#fafafa"></path><path d="M232.57,237.36a10.2,10.2,0,0,1-.56-3.19,10.55,10.55,0,0,1,0-3.24,9.88,9.88,0,0,1,.56,3.19A10.57,10.57,0,0,1,232.57,237.36Z" style="fill:#fafafa"></path><path d="M246.06,261.66a36.78,36.78,0,0,1-1.93,3.8,39.12,39.12,0,0,1-1.9,3.82,17.35,17.35,0,0,1,3.83-7.62Z" style="fill:#fafafa"></path><path d="M262.5,265.27c-.13.07-1.36-2-3.13-4.47s-3.38-4.27-3.27-4.37a24.79,24.79,0,0,1,6.4,8.84Z" style="fill:#fafafa"></path><path d="M269.14,269.84a10.18,10.18,0,0,1-.71-2.18c-.36-1.38-.8-3.29-1.16-5.42s-.6-4.09-.71-5.5a10.45,10.45,0,0,1-.06-2.3,13.07,13.07,0,0,1,.38,2.26c.19,1.4.47,3.33.83,5.46s.75,4,1,5.42A13.26,13.26,0,0,1,269.14,269.84Z" style="fill:#263238"></path><path d="M268.6,243c0,2.38.77,8.82.77,8.82l-2.74,3.66,1.9,12.32L281,254.42a6.15,6.15,0,0,0,1.62-3.27c.67-4.07,2.12-13.34,1.68-13.88-.7-.83-1.94.26-2.39,2.31-.24,1.07-2.2,7.14-2.2,7.14s-1.17-8.46-1.95-9.42c-1.23-1.51-1.87,1.06-1.76,2.88.13,2.27.15,5,.15,6.52a.18.18,0,0,1-.36.05c-.8-2.75-2.82-9.14-4-8.57s-.66,3.28-.36,4.56c1.23,5.32.45,5.36.45,5.36L269.9,242a.58.58,0,0,0-.71-.39C268.55,241.83,268.59,242.47,268.6,243Z" style="fill:#ffbe9d"></path><path d="M275.68,246.28a2.91,2.91,0,0,1,.49,1.07,7,7,0,0,1,.34,2.84,4.31,4.31,0,0,1-1.19,2.61c-.55.52-1,.64-1,.59s.36-.28.79-.81a4.58,4.58,0,0,0,1-2.44,9.26,9.26,0,0,0-.2-2.71C275.71,246.74,275.61,246.31,275.68,246.28Z" style="fill:#eb996e"></path><path d="M279.38,245.38c.06,0,.27.38.49,1.07a7,7,0,0,1,.35,2.83,4.29,4.29,0,0,1-1.2,2.61c-.54.53-1,.64-1,.59s.36-.27.8-.81a4.66,4.66,0,0,0,1-2.44,8.8,8.8,0,0,0-.21-2.7A3.91,3.91,0,0,1,279.38,245.38Z" style="fill:#eb996e"></path><path d="M158.34,298.21s-.24,0-.71,0a20.2,20.2,0,0,1-2-.11,25.85,25.85,0,0,1-7.25-1.86,29.77,29.77,0,0,1-9.28-6.08,31.5,31.5,0,0,1-7.57-11.26,31.82,31.82,0,0,1-1.81-6.83,35.17,35.17,0,0,1-.32-6.57,38,38,0,0,1,2.16-10.9,32.6,32.6,0,0,1,3.29-6.73,20.24,20.24,0,0,1,1.16-1.67,6.24,6.24,0,0,1,.45-.56,5.16,5.16,0,0,1-.37.61c-.26.39-.66.94-1.09,1.71a34.92,34.92,0,0,0-3.14,6.75,38.57,38.57,0,0,0-2,10.8,35.12,35.12,0,0,0,.34,6.49,31,31,0,0,0,9.23,17.86,30.45,30.45,0,0,0,9.11,6.09,26.7,26.7,0,0,0,7.16,2C157.36,298.15,158.34,298.15,158.34,298.21Z" style="fill:#263238"></path><path d="M176,254.2s4.9,2.55,6.25,2.68,6.1,0,6.1,0,.61,1.31-2.33,2.09l-3.44.87a1,1,0,0,0-.51,1.65c1.58,1.81,4.37,4.94,4.76,5s3-2.38,3.45-2.89c.68-.75,2.85-.25,1.28,2.13-1.37,2.11-4.36,4.91-5.32,4.06-.73-.65-3.59-3.14-3.59-3.14s4.67,5.64,5,7.4-1.59,2-2.75.75c-.57-.61-5.57-6.43-5.57-6.43s6.73,9.22,4.29,9.39c-1.42.1-5.71-6.65-5.71-6.65l2.21,5.17a1,1,0,0,1-1.74,1.12,32.13,32.13,0,0,1-2.66-3.88c-.77-1.25-8-10.86-8-10.86Z" style="fill:#ffbe9d"></path><path d="M137.24,247.61l29,16.56,11.32-11.58-28.66-22.74,23.93-13.59-.08-23.87L137.7,211.25a20.75,20.75,0,0,0-10.62,14.69h0A20.78,20.78,0,0,0,137.24,247.61Z" style="fill:#63B4C1"></path><path d="M142.58,225.05a20.51,20.51,0,0,1,6.89,4.75,37.14,37.14,0,0,1-3.46-2.36A37.24,37.24,0,0,1,142.58,225.05Z" style="fill:#263238"></path><path d="M147,221a10.45,10.45,0,0,1,2.63,8.82,29.19,29.19,0,0,0-.73-4.59A27.51,27.51,0,0,0,147,221Z" style="fill:#263238"></path><path d="M163.36,212.68c-.14-.07.8-2.09,1.68-4.69s1.37-4.77,1.52-4.74a20.88,20.88,0,0,1-3.2,9.43Z" style="fill:#fafafa"></path><path d="M157.34,217.7a17,17,0,0,1-3.1-2.83,16.69,16.69,0,0,1-2.72-3.2,17.16,17.16,0,0,1,3.09,2.83A17.46,17.46,0,0,1,157.34,217.7Z" style="fill:#fafafa"></path><path d="M137.06,226.53a23.78,23.78,0,0,1,1.05-3.73,23.63,23.63,0,0,1,1.16-3.7,10.56,10.56,0,0,1-.66,3.85A10.71,10.71,0,0,1,137.06,226.53Z" style="fill:#fafafa"></path><path d="M140.94,239.67a13.51,13.51,0,0,1-3.27-1.75,13.33,13.33,0,0,1-3-2.19,13.09,13.09,0,0,1,3.27,1.75A13.33,13.33,0,0,1,140.94,239.67Z" style="fill:#fafafa"></path><path d="M153.17,246.59a11.69,11.69,0,0,1,.07-7.83c.15,0-.18,1.76-.19,3.91S153.32,246.56,153.17,246.59Z" style="fill:#fafafa"></path><path d="M172,258.14a29.36,29.36,0,0,1-5.17-1.65,29.34,29.34,0,0,1-5-2.14A27.68,27.68,0,0,1,167,256,27.26,27.26,0,0,1,172,258.14Z" style="fill:#fafafa"></path></g><g id="balcony-1--inject-36"><path d="M372.34,286.33H58a2.7,2.7,0,0,1-2.7-2.7h0a2.7,2.7,0,0,1,2.7-2.7H372.34a2.7,2.7,0,0,1,2.7,2.7h0A2.7,2.7,0,0,1,372.34,286.33Z" style="fill:#263238"></path><path d="M370.42,417.88c0-1.46-.41-50.34-1.06-131.55l.19.19-308.66.07h0l.26-.26c.3,46.14.59,90.63.86,131.54l-.25-.24,308.68.25-308.68.24H61.5v-.24c-.27-40.92-.57-85.4-.88-131.55v-.26h.28l308.66.07h.18v.19C370.16,367.54,370.41,416.43,370.42,417.88Z" style="fill:#263238"></path><path d="M78.54,417.88c-.15,0-.27-29.88-.27-66.72s.12-66.71.27-66.71.26,29.86.26,66.71S78.68,417.88,78.54,417.88Z" style="fill:#263238"></path><path d="M96,417.88c-.14,0-.26-29.88-.26-66.72s.12-66.71.26-66.71.26,29.86.26,66.71S96.18,417.88,96,417.88Z" style="fill:#263238"></path><path d="M113.53,417.88c-.14,0-.26-29.88-.26-66.72s.12-66.71.26-66.71.26,29.86.26,66.71S113.68,417.88,113.53,417.88Z" style="fill:#263238"></path><path d="M131,417.88c-.14,0-.26-29.88-.26-66.72s.12-66.71.26-66.71.26,29.86.26,66.71S131.17,417.88,131,417.88Z" style="fill:#263238"></path><path d="M148.53,417.88c-.15,0-.26-29.88-.26-66.72s.11-66.71.26-66.71.26,29.86.26,66.71S148.67,417.88,148.53,417.88Z" style="fill:#263238"></path><path d="M166,417.88c-.15,0-.26-29.88-.26-66.72s.11-66.71.26-66.71.26,29.86.26,66.71S166.17,417.88,166,417.88Z" style="fill:#263238"></path><path d="M183.52,417.88c-.14,0-.26-29.88-.26-66.72s.12-66.71.26-66.71.26,29.86.26,66.71S183.67,417.88,183.52,417.88Z" style="fill:#263238"></path><path d="M201,417.88c-.14,0-.26-29.88-.26-66.72s.12-66.71.26-66.71.26,29.86.26,66.71S201.17,417.88,201,417.88Z" style="fill:#263238"></path><path d="M218.52,417.88c-.14,0-.26-29.88-.26-66.72s.12-66.71.26-66.71.26,29.86.26,66.71S218.66,417.88,218.52,417.88Z" style="fill:#263238"></path><path d="M236,417.88c-.15,0-.26-29.88-.26-66.72s.11-66.71.26-66.71.26,29.86.26,66.71S236.16,417.88,236,417.88Z" style="fill:#263238"></path><path d="M253.52,417.88c-.15,0-.26-29.88-.26-66.72s.11-66.71.26-66.71.26,29.86.26,66.71S253.66,417.88,253.52,417.88Z" style="fill:#263238"></path><path d="M271,417.88c-.14,0-.26-29.88-.26-66.72s.12-66.71.26-66.71.26,29.86.26,66.71S271.16,417.88,271,417.88Z" style="fill:#263238"></path><path d="M288.51,417.88c-.14,0-.26-29.88-.26-66.72s.12-66.71.26-66.71.26,29.86.26,66.71S288.66,417.88,288.51,417.88Z" style="fill:#263238"></path><path d="M306,417.88c-.14,0-.26-29.88-.26-66.72s.12-66.71.26-66.71.26,29.86.26,66.71S306.15,417.88,306,417.88Z" style="fill:#263238"></path><path d="M323.51,417.88c-.15,0-.26-29.88-.26-66.72s.11-66.71.26-66.71.26,29.86.26,66.71S323.65,417.88,323.51,417.88Z" style="fill:#263238"></path><path d="M341,417.88c-.15,0-.26-29.88-.26-66.72s.11-66.71.26-66.71.26,29.86.26,66.71S341.15,417.88,341,417.88Z" style="fill:#263238"></path><path d="M358.5,417.88c-.14,0-.26-29.88-.26-66.72s.12-66.71.26-66.71.26,29.86.26,66.71S358.65,417.88,358.5,417.88Z" style="fill:#263238"></path></g><g id="Plants--inject-36"><path d="M79.35,348.54a24.44,24.44,0,0,0-10.5-3.62,7,7,0,0,0-5,.92c-.29.22-.58.54-.51.9a1.07,1.07,0,0,0,.49.62,15,15,0,0,0,15.49,1.18" style="fill:#63B4C1"></path><path d="M79.08,348.24a50.65,50.65,0,0,1-6.78-6,17.16,17.16,0,0,1-4.25-7.86,3.18,3.18,0,0,1,.33-2.64c5.41,4.23,9.66,9.69,10.7,16.47" style="fill:#63B4C1"></path><path d="M79.3,348.5a24.47,24.47,0,0,1,.12-8.91,12,12,0,0,1,4.75-7.35c.93,2.19.53,4.7-.13,7a34.05,34.05,0,0,1-4.7,9.91" style="fill:#63B4C1"></path><path d="M84.6,358a15.45,15.45,0,0,0-8.42,4.26,15.83,15.83,0,0,0-4.82,8.27c3.15-.2,5.83-2.42,7.77-4.92s3.29-5.23,5.42-7.57" style="fill:#63B4C1"></path><path d="M85.75,359.51a20.79,20.79,0,0,1,2.4-19.65,25,25,0,0,1-2.4,19.65" style="fill:#63B4C1"></path><path d="M92.75,367.85a15,15,0,0,0-14.36,8.27c-.18.36-.34.81-.1,1.13a1.08,1.08,0,0,0,1,.28c2.83-.18,5.34-1.89,7.41-3.83s3.87-4.18,6.16-5.85" style="fill:#63B4C1"></path><path d="M92.53,367.4a26.73,26.73,0,0,1-.27-14.94c.53-1.93,1.41-3.95,3.19-4.85a.62.62,0,0,1,.49-.09.65.65,0,0,1,.31.36,9,9,0,0,1,.75,4.29,26.8,26.8,0,0,1-.67,4.34c-.56,2.65-.86,5.5-2.31,7.79a15.68,15.68,0,0,0-.93,1.71c-.27.58-.28.78-.53,1.25" style="fill:#63B4C1"></path><path d="M111.07,370.16a19.25,19.25,0,0,1,3.38-15.84c.24-.31.56-.65,1-.62.6.06.76.87.73,1.48a28.54,28.54,0,0,1-5.07,15" style="fill:#63B4C1"></path><path d="M112.74,371.31a23.06,23.06,0,0,0,18.91-3.85,15.31,15.31,0,0,0-10.24-1.26,14.67,14.67,0,0,0-8.67,5.11" style="fill:#63B4C1"></path><path d="M114.15,367.83a21.87,21.87,0,0,1,17.16-9.93,10.55,10.55,0,0,1-5.61,6.21,31.14,31.14,0,0,1-8.24,2.41c-1.09.21-2.6.45-3.31,1.31" style="fill:#63B4C1"></path><path d="M111.42,351a49.81,49.81,0,0,0,2.2-10.06,16.83,16.83,0,0,0-2-9.94,21.9,21.9,0,0,0-.3,20.34" style="fill:#63B4C1"></path><path d="M122.6,345.29c3.89-7.05,11.81-12.69,19.83-13.48-3.09,7.7-11.53,13.65-19.83,13.48" style="fill:#63B4C1"></path><path d="M120.16,346.68c5.79.88,10.73,4.58,16.14,6.82a7.27,7.27,0,0,0,3.65.7,2.86,2.86,0,0,0,1.79-5.05,7.74,7.74,0,0,0-2.65-1.61,29.49,29.49,0,0,0-18.43-1" style="fill:#63B4C1"></path><path d="M116.81,350.74c1.31.38,1.76,1.05,2.8,1.94A30.17,30.17,0,0,0,131.85,359c.46.11,1.08.16,1.31-.26s-.06-.82-.32-1.15a16.92,16.92,0,0,0-7.39-5c-2.82-1.05-5.27-2.31-8.64-2" style="fill:#63B4C1"></path><path d="M113,326.21a23.18,23.18,0,0,0,17.75,6,1.25,1.25,0,0,0,.81-.29c.45-.49-.09-1.24-.61-1.65-5.22-4.07-11.54-5.75-17.95-4.1" style="fill:#63B4C1"></path><path d="M117.51,324.56a24.77,24.77,0,0,1,22.16-3.65,17.55,17.55,0,0,1-10.56,4.63,33.15,33.15,0,0,1-11.6-1" style="fill:#63B4C1"></path><path d="M115.73,313.29c-.51-5.21-.18-9.32-.54-14.56,0-.42-.12-.92-.51-1.07-.55-.21-1,.46-1.18,1a16.73,16.73,0,0,0,2.22,14.51" style="fill:#63B4C1"></path><path d="M115.35,313.87a30.68,30.68,0,0,0,8.64-8.39c1.7-2.34,3.14-5.13,2.75-8a8.27,8.27,0,0,0-6.23,3.09,17.46,17.46,0,0,0-3.17,6.38c-.69,2.3-1.17,4.65-2,6.91" style="fill:#63B4C1"></path><path d="M123.83,311.51A69.52,69.52,0,0,0,145.08,299c-2.54-1-5.45-.41-8,.62a25.21,25.21,0,0,0-13.38,11.85" style="fill:#63B4C1"></path><path d="M117.74,316.72a43.11,43.11,0,0,0,11.79,0,50.36,50.36,0,0,0,11-3.65,1.34,1.34,0,0,0,.74-.57.89.89,0,0,0-.26-.95,2.46,2.46,0,0,0-.94-.44,20.43,20.43,0,0,0-11.9.72,54.44,54.44,0,0,0-10.45,4.84" style="fill:#63B4C1"></path><path d="M95.35,326.38a20.85,20.85,0,0,1-.19-17.27c1.62,2.48,1.82,5.64,1.52,8.59s-1.19,6-1.25,8.95" style="fill:#63B4C1"></path><path d="M84.66,321a24.11,24.11,0,0,0-17.9,7.63,16.75,16.75,0,0,0,9.8-1.82,50,50,0,0,0,8.4-5.62" style="fill:#63B4C1"></path><path d="M77.47,318.59c-3.26-.27-6.41-.67-9.55.29a11.48,11.48,0,0,0-7.28,6.18,17.29,17.29,0,0,0,9-1.69,51.06,51.06,0,0,0,7.88-4.78" style="fill:#63B4C1"></path><path d="M88.11,318.7c-2.94-1.93-6-3.89-9.38-4.69s-7.39-.2-9.77,2.38c2.77,1.62,6.13,1.81,9.34,1.81s7.15,0,10.18,1" style="fill:#63B4C1"></path><path d="M88.13,318.85c-5-4.93-6.93-13.8-4.91-20.54a31.31,31.31,0,0,1,4.91,20.54" style="fill:#63B4C1"></path><path d="M102,304.87c1-2.2,1.61-4.51,2.46-6.76a19.39,19.39,0,0,1,3.52-6.23,9.27,9.27,0,0,1,6.22-3.22,25.08,25.08,0,0,1-12.08,16.25" style="fill:#63B4C1"></path><path d="M99.45,307.79c-1.57-2.16-3.38-5.09-5.51-6.71a9.21,9.21,0,0,0-7.49-2,17.47,17.47,0,0,0,13,8.67" style="fill:#63B4C1"></path><path d="M100,305.05a37.31,37.31,0,0,1-2.48-8,12.49,12.49,0,0,1,1.26-8.16c2.76,5.21,3.64,10.81,1.36,16.25" style="fill:#63B4C1"></path><path d="M102,288.86c1.56-5.17,6.29-9,11.4-10.72a4.2,4.2,0,0,1,2-.3,1.75,1.75,0,0,1,1.48,1.23c.18.88-.54,1.66-1.23,2.25A38.92,38.92,0,0,1,102,288.86" style="fill:#63B4C1"></path><path d="M102,284.63a37.25,37.25,0,0,1,1.49-9.87,12.49,12.49,0,0,1,6.22-7.5c.51,3.36-1,6.71-2.76,9.61s-4,5.63-5,8.86" style="fill:#63B4C1"></path><path d="M102,286.93c-1.29-3.77-1.43-8.56-3.68-11.84-1.58-2.29-4.1-3.86-5.46-6.29a9.51,9.51,0,0,0,.32,7.14,20.72,20.72,0,0,0,4.17,6c1.67,1.78,3.1,3.12,4.65,5" style="fill:#63B4C1"></path><path d="M102,397.88c-.11,0-.19-25.14-.2-56.13s.07-56.14.17-56.14.19,25.13.19,56.14S102.08,397.88,102,397.88Z" style="fill:#263238"></path><path d="M123.94,322.59a5.79,5.79,0,0,1-1,.36l-2.6.87c-2.19.75-5.2,1.83-8.47,3.17s-6.29,2.52-8,4a5.83,5.83,0,0,0-1.61,2.14c-.25.59-.3,1-.33.94a.74.74,0,0,1,0-.26,3.58,3.58,0,0,1,.19-.73,5.65,5.65,0,0,1,1.57-2.28,14.23,14.23,0,0,1,3.48-2.16c1.4-.65,2.94-1.33,4.58-2,3.28-1.35,6.32-2.4,8.53-3.08,1.11-.35,2-.6,2.64-.77A6.44,6.44,0,0,1,123.94,322.59Z" style="fill:#263238"></path><path d="M131.14,304.91a2,2,0,0,1-.27.28l-.8.76-3,2.73-10,8.93c-3.91,3.48-7.29,6.8-9.63,9.31-1.17,1.25-2.1,2.29-2.73,3-.29.34-.53.61-.73.83s-.26.29-.27.28a1.61,1.61,0,0,1,.22-.32c.15-.21.37-.51.67-.88.6-.75,1.5-1.82,2.65-3.09a126.09,126.09,0,0,1,9.58-9.42c3.93-3.47,7.5-6.59,10.1-8.84l3.08-2.65.85-.7A1.47,1.47,0,0,1,131.14,304.91Z" style="fill:#263238"></path><path d="M112.81,321.15c-.1,0,.72-1.94,1.53-4.32s1.21-4.4,1.31-4.39a14.27,14.27,0,0,1-1,4.5,28,28,0,0,1-1.21,3A4.58,4.58,0,0,1,112.81,321.15Z" style="fill:#263238"></path><path d="M102,336.36a4.64,4.64,0,0,1-.6-.7l-1.55-2c-1.3-1.68-3.09-4-5.1-6.53s-3.86-4.8-5.2-6.44l-1.57-2a4.89,4.89,0,0,1-.55-.74,3.83,3.83,0,0,1,.65.65c.41.44,1,1.08,1.67,1.88,1.39,1.6,3.27,3.85,5.29,6.39s3.77,4.88,5,6.59c.62.86,1.12,1.56,1.45,2.05A5,5,0,0,1,102,336.36Z" style="fill:#263238"></path><path d="M97.18,330.18a8.94,8.94,0,0,1-2-3.78,10.93,10.93,0,0,1-.45-3.81h.16c-.07.3-.13.45-.16.44a1.09,1.09,0,0,1,0-.46h.16a17.6,17.6,0,0,0,.64,3.71A29.42,29.42,0,0,0,97.18,330.18Z" style="fill:#263238"></path><path d="M91,322.35a6.94,6.94,0,0,0-1.41-.81,9.21,9.21,0,0,0-3.91-.31,24.09,24.09,0,0,0-3.94.63,11.72,11.72,0,0,1-1.62.39,5.84,5.84,0,0,1,1.55-.64,18.22,18.22,0,0,1,4-.75,8.58,8.58,0,0,1,4,.44A2.61,2.61,0,0,1,91,322.35Z" style="fill:#263238"></path><path d="M89.49,320.46c0,.06-.82-.33-2.16-.79a21.8,21.8,0,0,0-5.38-1.1,22.39,22.39,0,0,0-5.49.27c-1.39.25-2.23.51-2.25.45a2.38,2.38,0,0,1,.57-.24,13.32,13.32,0,0,1,1.63-.46,19.16,19.16,0,0,1,11,.84,13.62,13.62,0,0,1,1.54.7A2.2,2.2,0,0,1,89.49,320.46Z" style="fill:#263238"></path><path d="M102,312.44a43.65,43.65,0,0,1-1.57-5.46,45.52,45.52,0,0,1-1.23-5.56,43.09,43.09,0,0,1,1.58,5.47A44.35,44.35,0,0,1,102,312.44Z" style="fill:#263238"></path><path d="M102.05,312.44a27,27,0,0,0-1.74-3.27,15.08,15.08,0,0,0-2.57-2.65,2.37,2.37,0,0,1,1,.51A8,8,0,0,1,100.6,309,7.25,7.25,0,0,1,102.05,312.44Z" style="fill:#263238"></path><path d="M102,384.48s-.12-.61-.4-1.67a23.89,23.89,0,0,0-1.68-4.35A60.61,60.61,0,0,0,91,365.9c-2-2.27-3.92-4.42-5.56-6.47a44.82,44.82,0,0,1-4-5.73,28.21,28.21,0,0,1-2-4.25c-.18-.53-.32-.94-.39-1.22a2.79,2.79,0,0,1-.11-.43s.22.57.63,1.59a31.64,31.64,0,0,0,2.1,4.18,47,47,0,0,0,4,5.65c1.65,2,3.58,4.17,5.57,6.44a57.09,57.09,0,0,1,8.87,12.68,21.94,21.94,0,0,1,1.59,4.43c.11.55.19,1,.22,1.26A3.68,3.68,0,0,1,102,384.48Z" style="fill:#263238"></path><path d="M121.82,362.06a9.27,9.27,0,0,1-1,.59,22.39,22.39,0,0,0-2.7,1.78,31.78,31.78,0,0,0-3.54,3.23c-1.24,1.31-2.52,2.84-3.83,4.47-2.62,3.28-5.06,6.19-6.52,8.5a32,32,0,0,0-1.64,2.8c-.36.68-.55,1.06-.57,1.05s0-.11.09-.3.18-.46.35-.81A27.07,27.07,0,0,1,104,380.5a91.69,91.69,0,0,1,6.46-8.59c1.31-1.64,2.6-3.17,3.87-4.48a29.15,29.15,0,0,1,3.63-3.21,19.12,19.12,0,0,1,2.79-1.7c.34-.17.62-.28.81-.36A1,1,0,0,1,121.82,362.06Z" style="fill:#263238"></path><path d="M122.21,369.33a13.46,13.46,0,0,1-2.2.32,29,29,0,0,0-5.21,1,15.64,15.64,0,0,0-4.67,2.45c-1.08.83-1.58,1.52-1.63,1.48s.08-.2.32-.51a8.67,8.67,0,0,1,1.15-1.17,14.25,14.25,0,0,1,4.72-2.6,23.39,23.39,0,0,1,5.3-.93A13.37,13.37,0,0,1,122.21,369.33Z" style="fill:#263238"></path><path d="M109.14,373.81c-.12-.06.87-1.58,1.64-3.61s.89-3.86,1-3.84a3.22,3.22,0,0,1,0,1.18,11.92,11.92,0,0,1-.64,2.78,13.09,13.09,0,0,1-1.27,2.55C109.46,373.48,109.18,373.84,109.14,373.81Z" style="fill:#263238"></path><path d="M128.25,342.54l-.35.18-1,.47c-.45.2-1,.44-1.62.77s-1.34.65-2.1,1.1l-1.2.69c-.41.24-.82.52-1.26.79-.89.54-1.77,1.2-2.72,1.87a51.39,51.39,0,0,0-5.66,5,50.49,50.49,0,0,0-4.79,5.84c-.65,1-1.28,1.87-1.78,2.77-.26.45-.53.87-.76,1.3s-.43.83-.64,1.22c-.42.77-.73,1.5-1,2.14s-.53,1.18-.71,1.64l-.43,1.05a1.19,1.19,0,0,1-.18.36,2,2,0,0,1,.11-.39l.37-1.07c.16-.47.37-1,.66-1.68s.57-1.39,1-2.17l.63-1.24c.22-.43.48-.85.74-1.31.5-.91,1.12-1.83,1.76-2.81a47.48,47.48,0,0,1,4.8-5.9,49,49,0,0,1,5.73-5c1-.68,1.86-1.33,2.76-1.86.44-.27.86-.55,1.28-.79l1.22-.66c.77-.44,1.5-.76,2.14-1.06s1.19-.54,1.65-.72l1.06-.4A1.76,1.76,0,0,1,128.25,342.54Z" style="fill:#263238"></path><path d="M112.54,353.06a2.62,2.62,0,0,1,.87-1.28,5.46,5.46,0,0,1,3.48-1.34,9.44,9.44,0,0,1,3.66.72,5.06,5.06,0,0,1,1.38.67,8.88,8.88,0,0,1-1.47-.43,10.79,10.79,0,0,0-3.56-.6,5.75,5.75,0,0,0-3.33,1.17A11.09,11.09,0,0,0,112.54,353.06Z" style="fill:#263238"></path><path d="M110.19,355.48a12.8,12.8,0,0,0,1-3.21,13.26,13.26,0,0,0-.22-3.36,2.2,2.2,0,0,1,.41.94,6.73,6.73,0,0,1-.56,4.82C110.5,355.22,110.23,355.51,110.19,355.48Z" style="fill:#263238"></path><path d="M84.62,388.08c.54,9.6,3.43,19.37,7.88,29.25h19.36c4.25-9.78,6.94-19.53,7.42-29.25Z" style="fill:#455a64"></path><path d="M116.15,403.62c0,.1-6.38.18-14.24.18s-14.24-.08-14.24-.18,6.38-.18,14.24-.18S116.15,403.52,116.15,403.62Z" style="fill:#fafafa"></path><path d="M115.71,407.1c0,.1-6,.18-13.34.18S89,407.2,89,407.1s6-.18,13.35-.18S115.71,407,115.71,407.1Z" style="fill:#fafafa"></path><path d="M418.77,156.26l.06-.33c.05-.23.11-.54.2-.94.19-.85.46-2.07.8-3.64l3-13.36C425.45,126.7,429,111.11,433,93.83l.18-.78.18.78c.07.31.14.65.22,1,3.94,17.51,7.51,33.37,10.1,44.86,1.27,5.73,2.3,10.38,3,13.61.35,1.59.62,2.84.8,3.7.09.41.16.73.2,1a2.75,2.75,0,0,1,.06.34,3.06,3.06,0,0,1-.09-.33l-.24-1c-.2-.86-.49-2.1-.87-3.69l-3.13-13.58c-2.62-11.49-6.22-27.34-10.21-44.84-.07-.34-.15-.68-.22-1h.36c-4,17.26-7.62,32.84-10.24,44.13-1.33,5.62-2.4,10.17-3.14,13.33-.37,1.56-.67,2.78-.87,3.62l-.23.94C418.81,156.15,418.77,156.26,418.77,156.26Z" style="fill:#263238"></path><path d="M418.77,169.37V158.29h29.57v11.08a12.9,12.9,0,0,1-12.9,12.91h-3.77A12.9,12.9,0,0,1,418.77,169.37Z" style="fill:#455a64"></path><path d="M418.77,158.29a3.35,3.35,0,0,1,.33.46c.23.34.53.8.9,1.37l3.26,5.09,10.64,16.85.08.12h-.31L444,165.24c1.32-2.13,2.4-3.87,3.16-5.11.37-.57.66-1,.88-1.38a3,3,0,0,1,.32-.46,3.83,3.83,0,0,1-.26.5l-.82,1.42-3.06,5.16-10.22,17-.15.26-.16-.25-.08-.12L423,165.35l-3.16-5.15-.84-1.41A2.47,2.47,0,0,1,418.77,158.29Z" style="fill:#263238"></path><path d="M436.49,93.74a3.23,3.23,0,1,1-3.23-3.23A3.23,3.23,0,0,1,436.49,93.74Z" style="fill:#263238"></path><path d="M433.26,38.76c.1,0,.18,12.45.18,27.79s-.08,27.79-.18,27.79-.18-12.44-.18-27.79S433.16,38.76,433.26,38.76Z" style="fill:#263238"></path><path d="M434.94,183.48a1.39,1.39,0,1,1-1.39-1.38A1.39,1.39,0,0,1,434.94,183.48Z" style="fill:#263238"></path><path d="M432.94,184l.22-.11a3.05,3.05,0,0,0-1.39,2.29,8,8,0,0,0,.23,2.75c.07.29.22.65.51.63s.39-.33.44-.59a5.78,5.78,0,0,0,0-1.66,2.87,2.87,0,0,0,.64,1.95c.09.11.21.22.34.19a.39.39,0,0,0,.22-.31,6.76,6.76,0,0,0,.21-1.42,2.17,2.17,0,0,0,.44,1.16.77.77,0,0,0,1.1.07,1.12,1.12,0,0,0,.12-.81,9.51,9.51,0,0,0-1.94-4.54" style="fill:#263238"></path><path d="M420.63,158.29S407.34,143,408.82,142.41s13.28,7.94,13.28,7.94S412,127.65,414,126s12.74,20.12,12.74,20.12-1.66-31.75,0-32.12,7.75,31.75,7.75,31.75,9-29.35,11.63-29.35-2.77,28.24-2.77,28.24,10.7-18.09,12.36-15.69-7.56,22-7.56,22,13.47-11.25,14-9.78-14.58,17.17-14.58,17.17Z" style="fill:#63B4C1"></path><path d="M418.77,135.22c.09,0,2.45,5,5.27,11.28s5,11.4,4.93,11.44-2.45-5-5.27-11.29S418.68,135.26,418.77,135.22Z" style="fill:#263238"></path><path d="M429.51,138c.1,0,.49,4.45.87,10s.61,10,.51,10-.49-4.45-.87-10S429.41,138.05,429.51,138Z" style="fill:#263238"></path><path d="M444.32,123.82a1.72,1.72,0,0,1-.08.36c-.08.27-.18.61-.29,1l-1.12,3.7c-.93,3.12-2.19,7.45-3.48,12.25s-2.34,9.18-3.08,12.36c-.36,1.55-.66,2.82-.88,3.76-.1.41-.18.75-.25,1a1.63,1.63,0,0,1-.11.35,1.47,1.47,0,0,1,0-.37c.05-.27.11-.62.18-1,.17-.9.43-2.19.77-3.79.68-3.19,1.7-7.58,3-12.39s2.59-9.13,3.59-12.24c.5-1.55.92-2.8,1.22-3.66q.21-.6.36-1A1.09,1.09,0,0,1,444.32,123.82Z" style="fill:#263238"></path><path d="M450.72,140.19c.08.05-2.51,3.92-5.79,8.63s-6,8.49-6.1,8.43,2.51-3.92,5.8-8.64S450.64,140.13,450.72,140.19Z" style="fill:#263238"></path><path d="M425.11,158a4.9,4.9,0,0,1-1.16-.83,33.07,33.07,0,0,1-2.53-2.33,31.87,31.87,0,0,1-2.27-2.59,5.14,5.14,0,0,1-.8-1.18c.08-.07,1.47,1.6,3.33,3.51S425.18,157.88,425.11,158Z" style="fill:#263238"></path><path d="M433.18,151.88a14.09,14.09,0,0,1,.47,3.16,14.18,14.18,0,0,1,.11,3.19,14.22,14.22,0,0,1-.47-3.16A14.17,14.17,0,0,1,433.18,151.88Z" style="fill:#263238"></path><path d="M448.34,165.19a6.12,6.12,0,0,1-1.14.24c-.74.13-1.81.3-3.14.48a101.86,101.86,0,0,1-10.45.93,65,65,0,0,1-10.49-.44c-1.34-.17-2.41-.34-3.14-.5a7.55,7.55,0,0,1-1.14-.27,6.16,6.16,0,0,1,1.16.13c.74.11,1.82.25,3.15.39a77.56,77.56,0,0,0,10.44.33c4.09-.14,7.77-.52,10.44-.82l3.15-.37A9.8,9.8,0,0,1,448.34,165.19Z" style="fill:#fff"></path><path d="M448.34,168.49a6.12,6.12,0,0,1-1.14.24c-.74.13-1.81.3-3.14.48a101.86,101.86,0,0,1-10.45.93,66.34,66.34,0,0,1-10.49-.43c-1.34-.18-2.41-.35-3.14-.51a7.55,7.55,0,0,1-1.14-.27,7.47,7.47,0,0,1,1.16.13c.74.11,1.82.25,3.15.39a77.56,77.56,0,0,0,10.44.33c4.09-.14,7.77-.52,10.44-.82l3.15-.37A9.8,9.8,0,0,1,448.34,168.49Z" style="fill:#fff"></path></g></svg>